<svg width="1003" height="503" viewBox="0 0 1003 503" fill="none" xmlns="http://www.w3.org/2000/svg">
<path d="M12.0892 76.6991H9.98022V80.1182H7.50913V76.6991H0.42605V74.8032L7.54109 64.5034H9.98022V74.6221H12.0892V76.6991ZM7.50913 74.6221V70.7557C7.50913 70.4362 7.51268 70.1131 7.51978 69.7864C7.53399 69.4527 7.54819 69.1332 7.56239 68.8278C7.57659 68.5225 7.59079 68.242 7.60499 67.9864C7.6192 67.7237 7.62985 67.5071 7.63695 67.3367H7.55174C7.41682 67.6207 7.2677 67.9118 7.10439 68.2101C6.94107 68.5012 6.7671 68.7852 6.58247 69.0622L2.74802 74.6221H7.50913ZM23.528 72.3214C23.528 73.5783 23.4286 74.7038 23.2298 75.6979C23.0381 76.6849 22.7327 77.5228 22.3138 78.2116C21.8948 78.9004 21.3481 79.4258 20.6735 79.788C19.9989 80.1501 19.1823 80.3312 18.2237 80.3312C17.0237 80.3312 16.0331 80.0152 15.252 79.3832C14.4709 78.7442 13.8922 77.8281 13.5158 76.6352C13.1395 75.4352 12.9513 73.9972 12.9513 72.3214C12.9513 70.6457 13.1217 69.2113 13.4626 68.0183C13.8105 66.8183 14.3715 65.8987 15.1455 65.2597C15.9195 64.6206 16.9455 64.3011 18.2237 64.3011C19.4308 64.3011 20.425 64.6206 21.206 65.2597C21.9942 65.8916 22.5765 66.8076 22.9529 68.0077C23.3363 69.2006 23.528 70.6385 23.528 72.3214ZM15.4757 72.3214C15.4757 73.6351 15.5609 74.7322 15.7313 75.6127C15.9088 76.4932 16.2 77.1536 16.6047 77.5938C17.0095 78.027 17.5491 78.2435 18.2237 78.2435C18.8983 78.2435 19.4379 78.027 19.8427 77.5938C20.2474 77.1607 20.5386 76.5038 20.7161 75.6233C20.9007 74.7428 20.993 73.6422 20.993 72.3214C20.993 71.0149 20.9043 69.9214 20.7267 69.0409C20.5492 68.1604 20.2581 67.5 19.8533 67.0597C19.4486 66.6124 18.9054 66.3887 18.2237 66.3887C17.542 66.3887 16.9988 66.6124 16.5941 67.0597C16.1964 67.5 15.9088 68.1604 15.7313 69.0409C15.5609 69.9214 15.4757 71.0149 15.4757 72.3214ZM35.5314 72.3214C35.5314 73.5783 35.432 74.7038 35.2331 75.6979C35.0414 76.6849 34.7361 77.5228 34.3171 78.2116C33.8982 78.9004 33.3514 79.4258 32.6768 79.788C32.0023 80.1501 31.1857 80.3312 30.2271 80.3312C29.027 80.3312 28.0365 80.0152 27.2554 79.3832C26.4743 78.7442 25.8956 77.8281 25.5192 76.6352C25.1429 75.4352 24.9547 73.9972 24.9547 72.3214C24.9547 70.6457 25.1251 69.2113 25.466 68.0183C25.8139 66.8183 26.3749 65.8987 27.1488 65.2597C27.9228 64.6206 28.9489 64.3011 30.2271 64.3011C31.4342 64.3011 32.4283 64.6206 33.2094 65.2597C33.9976 65.8916 34.5799 66.8076 34.9562 68.0077C35.3397 69.2006 35.5314 70.6385 35.5314 72.3214ZM27.479 72.3214C27.479 73.6351 27.5642 74.7322 27.7347 75.6127C27.9122 76.4932 28.2033 77.1536 28.6081 77.5938C29.0128 78.027 29.5525 78.2435 30.2271 78.2435C30.9016 78.2435 31.4413 78.027 31.8461 77.5938C32.2508 77.1607 32.5419 76.5038 32.7195 75.6233C32.9041 74.7428 32.9964 73.6422 32.9964 72.3214C32.9964 71.0149 32.9076 69.9214 32.7301 69.0409C32.5526 68.1604 32.2614 67.5 31.8567 67.0597C31.452 66.6124 30.9087 66.3887 30.2271 66.3887C29.5454 66.3887 29.0022 66.6124 28.5974 67.0597C28.1998 67.5 27.9122 68.1604 27.7347 69.0409C27.5642 69.9214 27.479 71.0149 27.479 72.3214ZM47.5347 72.3214C47.5347 73.5783 47.4353 74.7038 47.2365 75.6979C47.0448 76.6849 46.7395 77.5228 46.3205 78.2116C45.9016 78.9004 45.3548 79.4258 44.6802 79.788C44.0056 80.1501 43.189 80.3312 42.2304 80.3312C41.0304 80.3312 40.0398 80.0152 39.2587 79.3832C38.4776 78.7442 37.8989 77.8281 37.5226 76.6352C37.1462 75.4352 36.9581 73.9972 36.9581 72.3214C36.9581 70.6457 37.1285 69.2113 37.4693 68.0183C37.8173 66.8183 38.3782 65.8987 39.1522 65.2597C39.9262 64.6206 40.9523 64.3011 42.2304 64.3011C43.4376 64.3011 44.4317 64.6206 45.2128 65.2597C46.001 65.8916 46.5832 66.8076 46.9596 68.0077C47.343 69.2006 47.5347 70.6385 47.5347 72.3214ZM39.4824 72.3214C39.4824 73.6351 39.5676 74.7322 39.738 75.6127C39.9156 76.4932 40.2067 77.1536 40.6114 77.5938C41.0162 78.027 41.5558 78.2435 42.2304 78.2435C42.905 78.2435 43.4447 78.027 43.8494 77.5938C44.2542 77.1607 44.5453 76.5038 44.7228 75.6233C44.9074 74.7428 44.9998 73.6422 44.9998 72.3214C44.9998 71.0149 44.911 69.9214 44.7335 69.0409C44.5559 68.1604 44.2648 67.5 43.8601 67.0597C43.4553 66.6124 42.9121 66.3887 42.2304 66.3887C41.5487 66.3887 41.0055 66.6124 40.6008 67.0597C40.2031 67.5 39.9156 68.1604 39.738 69.0409C39.5676 69.9214 39.4824 71.0149 39.4824 72.3214ZM59.5381 72.3214C59.5381 73.5783 59.4387 74.7038 59.2399 75.6979C59.0482 76.6849 58.7428 77.5228 58.3239 78.2116C57.9049 78.9004 57.3582 79.4258 56.6836 79.788C56.009 80.1501 55.1924 80.3312 54.2338 80.3312C53.0337 80.3312 52.0432 80.0152 51.2621 79.3832C50.481 78.7442 49.9023 77.8281 49.5259 76.6352C49.1496 75.4352 48.9614 73.9972 48.9614 72.3214C48.9614 70.6457 49.1318 69.2113 49.4727 68.0183C49.8206 66.8183 50.3816 65.8987 51.1556 65.2597C51.9296 64.6206 52.9556 64.3011 54.2338 64.3011C55.4409 64.3011 56.435 64.6206 57.2161 65.2597C58.0043 65.8916 58.5866 66.8076 58.9629 68.0077C59.3464 69.2006 59.5381 70.6385 59.5381 72.3214ZM51.4858 72.3214C51.4858 73.6351 51.571 74.7322 51.7414 75.6127C51.9189 76.4932 52.2101 77.1536 52.6148 77.5938C53.0195 78.027 53.5592 78.2435 54.2338 78.2435C54.9084 78.2435 55.448 78.027 55.8528 77.5938C56.2575 77.1607 56.5487 76.5038 56.7262 75.6233C56.9108 74.7428 57.0031 73.6422 57.0031 72.3214C57.0031 71.0149 56.9144 69.9214 56.7368 69.0409C56.5593 68.1604 56.2682 67.5 55.8634 67.0597C55.4587 66.6124 54.9155 66.3887 54.2338 66.3887C53.5521 66.3887 53.0089 66.6124 52.6041 67.0597C52.2065 67.5 51.9189 68.1604 51.7414 69.0409C51.571 69.9214 51.4858 71.0149 51.4858 72.3214Z" fill="#646464"/>
<path d="M14.0807 6.1875C15.1745 6.1875 16 6.42969 16.5573 6.91406C17.1198 7.39844 17.4011 8.15365 17.4011 9.17969V15H16.0964L15.7448 13.7734H15.6823C15.4375 14.0859 15.1849 14.3438 14.9245 14.5469C14.6641 14.75 14.362 14.901 14.0182 15C13.6797 15.1042 13.2656 15.1562 12.7761 15.1562C12.2604 15.1562 11.7995 15.0625 11.3932 14.875C10.987 14.6823 10.6667 14.3906 10.4323 14C10.1979 13.6094 10.0807 13.1146 10.0807 12.5156C10.0807 11.625 10.4115 10.9557 11.0729 10.5078C11.7396 10.0599 12.7448 9.8125 14.0886 9.76562L15.5886 9.71094V9.25781C15.5886 8.65885 15.4479 8.23177 15.1667 7.97656C14.8906 7.72135 14.5 7.59375 13.9948 7.59375C13.5625 7.59375 13.1432 7.65625 12.737 7.78125C12.3307 7.90625 11.9349 8.0599 11.5495 8.24219L10.9557 6.94531C11.3776 6.72135 11.8568 6.53906 12.3932 6.39844C12.9349 6.25781 13.4974 6.1875 14.0807 6.1875ZM15.5807 10.8672L14.4636 10.9062C13.5469 10.9375 12.9037 11.0938 12.5339 11.375C12.1641 11.6562 11.9792 12.0417 11.9792 12.5312C11.9792 12.9583 12.1068 13.2708 12.362 13.4688C12.6172 13.6615 12.9531 13.7578 13.3698 13.7578C14.0052 13.7578 14.5313 13.5781 14.9479 13.2188C15.3698 12.8542 15.5807 12.3203 15.5807 11.6172V10.8672ZM24.1272 6.1875C25.1011 6.1875 25.859 6.4401 26.4006 6.94531C26.9475 7.44531 27.2209 8.25 27.2209 9.35938V15H25.385V9.70312C25.385 9.03125 25.247 8.52865 24.9709 8.19531C24.6949 7.85677 24.2678 7.6875 23.6897 7.6875C22.8511 7.6875 22.2678 7.94531 21.9397 8.46094C21.6168 8.97656 21.4553 9.72396 21.4553 10.7031V15H19.6194V6.35156H21.0491L21.3069 7.52344H21.4084C21.5959 7.22135 21.8277 6.97396 22.1037 6.78125C22.385 6.58333 22.6975 6.4349 23.0412 6.33594C23.3902 6.23698 23.7522 6.1875 24.1272 6.1875ZM31.2752 6.35156V15H29.4392V6.35156H31.2752ZM30.3689 3.03906C30.6502 3.03906 30.8924 3.11458 31.0955 3.26562C31.3038 3.41667 31.408 3.67708 31.408 4.04688C31.408 4.41146 31.3038 4.67188 31.0955 4.82812C30.8924 4.97917 30.6502 5.05469 30.3689 5.05469C30.0773 5.05469 29.8299 4.97917 29.6267 4.82812C29.4288 4.67188 29.3299 4.41146 29.3299 4.04688C29.3299 3.67708 29.4288 3.41667 29.6267 3.26562C29.8299 3.11458 30.0773 3.03906 30.3689 3.03906ZM43.3294 6.1875C44.2982 6.1875 45.0274 6.4375 45.5169 6.9375C46.0117 7.4375 46.2591 8.23958 46.2591 9.34375V15H44.4232V9.67188C44.4232 9.01562 44.2956 8.52083 44.0404 8.1875C43.7852 7.85417 43.3971 7.6875 42.8763 7.6875C42.1471 7.6875 41.6211 7.92188 41.2982 8.39062C40.9805 8.85417 40.8216 9.52865 40.8216 10.4141V15H38.9857V9.67188C38.9857 9.23438 38.9284 8.86979 38.8138 8.57812C38.7044 8.28125 38.5352 8.0599 38.306 7.91406C38.0768 7.76302 37.7878 7.6875 37.4388 7.6875C36.9336 7.6875 36.53 7.80208 36.2279 8.03125C35.931 8.26042 35.7175 8.59896 35.5872 9.04688C35.457 9.48958 35.3919 10.0339 35.3919 10.6797V15H33.556V6.35156H34.9857L35.2435 7.51562H35.3451C35.5221 7.21354 35.7409 6.96615 36.0013 6.77344C36.2669 6.57552 36.5612 6.42969 36.8841 6.33594C37.207 6.23698 37.543 6.1875 37.8919 6.1875C38.5378 6.1875 39.082 6.30208 39.5247 6.53125C39.9675 6.75521 40.2982 7.09896 40.5169 7.5625H40.6576C40.9284 7.09375 41.306 6.7474 41.7904 6.52344C42.2747 6.29948 42.7878 6.1875 43.3294 6.1875ZM51.8602 6.1875C52.954 6.1875 53.7795 6.42969 54.3368 6.91406C54.8993 7.39844 55.1806 8.15365 55.1806 9.17969V15H53.8759L53.5243 13.7734H53.4618C53.217 14.0859 52.9644 14.3438 52.704 14.5469C52.4436 14.75 52.1415 14.901 51.7977 15C51.4592 15.1042 51.0451 15.1562 50.5556 15.1562C50.0399 15.1562 49.579 15.0625 49.1727 14.875C48.7665 14.6823 48.4462 14.3906 48.2118 14C47.9774 13.6094 47.8602 13.1146 47.8602 12.5156C47.8602 11.625 48.191 10.9557 48.8524 10.5078C49.5191 10.0599 50.5243 9.8125 51.8681 9.76562L53.3681 9.71094V9.25781C53.3681 8.65885 53.2274 8.23177 52.9462 7.97656C52.6701 7.72135 52.2795 7.59375 51.7743 7.59375C51.342 7.59375 50.9227 7.65625 50.5165 7.78125C50.1102 7.90625 49.7144 8.0599 49.329 8.24219L48.7352 6.94531C49.1571 6.72135 49.6363 6.53906 50.1727 6.39844C50.7144 6.25781 51.2769 6.1875 51.8602 6.1875ZM53.3602 10.8672L52.2431 10.9062C51.3264 10.9375 50.6832 11.0938 50.3134 11.375C49.9436 11.6562 49.7587 12.0417 49.7587 12.5312C49.7587 12.9583 49.8863 13.2708 50.1415 13.4688C50.3967 13.6615 50.7326 13.7578 51.1493 13.7578C51.7847 13.7578 52.3108 13.5781 52.7274 13.2188C53.1493 12.8542 53.3602 12.3203 53.3602 11.6172V10.8672ZM59.2426 15H57.3989V2.84375H59.2426V15ZM67.3281 12.5312C67.3281 13.099 67.1901 13.5781 66.9141 13.9688C66.638 14.3594 66.2344 14.6562 65.7031 14.8594C65.1771 15.0573 64.5312 15.1562 63.7656 15.1562C63.1615 15.1562 62.6406 15.112 62.2031 15.0234C61.7708 14.9401 61.362 14.8099 60.9766 14.6328V13.0469C61.388 13.2396 61.849 13.4062 62.3594 13.5469C62.875 13.6875 63.362 13.7578 63.8203 13.7578C64.4245 13.7578 64.8594 13.6641 65.125 13.4766C65.3906 13.2839 65.5234 13.0286 65.5234 12.7109C65.5234 12.5234 65.4688 12.3568 65.3594 12.2109C65.2552 12.0599 65.0573 11.9062 64.7656 11.75C64.4792 11.5885 64.0573 11.3958 63.5 11.1719C62.9531 10.9531 62.4922 10.7344 62.1172 10.5156C61.7422 10.2969 61.4583 10.0339 61.2656 9.72656C61.0729 9.41406 60.9766 9.01562 60.9766 8.53125C60.9766 7.76562 61.2786 7.1849 61.8828 6.78906C62.4922 6.38802 63.2969 6.1875 64.2969 6.1875C64.8281 6.1875 65.3281 6.24219 65.7969 6.35156C66.2708 6.45573 66.7344 6.60938 67.1875 6.8125L66.6094 8.19531C66.2188 8.02344 65.8255 7.88281 65.4297 7.77344C65.0391 7.65885 64.6406 7.60156 64.2344 7.60156C63.7604 7.60156 63.3984 7.67448 63.1484 7.82031C62.9036 7.96615 62.7812 8.17448 62.7812 8.44531C62.7812 8.64844 62.8411 8.82031 62.9609 8.96094C63.0807 9.10156 63.2865 9.24219 63.5781 9.38281C63.875 9.52344 64.2865 9.69792 64.8125 9.90625C65.3281 10.1042 65.7734 10.3125 66.1484 10.5312C66.5286 10.7448 66.8203 11.0078 67.0234 11.3203C67.2266 11.6328 67.3281 12.0365 67.3281 12.5312Z" fill="#646464"/>
<path d="M8.33993 329.765H5.82623V319.742C5.82623 319.408 5.82979 319.075 5.83689 318.741C5.84399 318.407 5.85109 318.08 5.85819 317.761C5.87239 317.441 5.89014 317.136 5.91144 316.845C5.76233 317.008 5.57771 317.186 5.35758 317.377C5.14455 317.569 4.91733 317.768 4.6759 317.974L2.88649 319.401L1.62964 317.814L6.25229 314.193H8.33993V329.765ZM23.528 321.968C23.528 323.225 23.4286 324.351 23.2298 325.345C23.0381 326.332 22.7327 327.17 22.3138 327.858C21.8948 328.547 21.3481 329.073 20.6735 329.435C19.9989 329.797 19.1823 329.978 18.2237 329.978C17.0237 329.978 16.0331 329.662 15.252 329.03C14.4709 328.391 13.8922 327.475 13.5158 326.282C13.1395 325.082 12.9513 323.644 12.9513 321.968C12.9513 320.292 13.1217 318.858 13.4626 317.665C13.8105 316.465 14.3715 315.545 15.1455 314.906C15.9195 314.267 16.9455 313.948 18.2237 313.948C19.4308 313.948 20.425 314.267 21.206 314.906C21.9942 315.538 22.5765 316.454 22.9529 317.654C23.3363 318.847 23.528 320.285 23.528 321.968ZM15.4757 321.968C15.4757 323.282 15.5609 324.379 15.7313 325.259C15.9088 326.14 16.2 326.8 16.6047 327.241C17.0095 327.674 17.5491 327.89 18.2237 327.89C18.8983 327.89 19.4379 327.674 19.8427 327.241C20.2474 326.807 20.5386 326.151 20.7161 325.27C20.9007 324.39 20.993 323.289 20.993 321.968C20.993 320.662 20.9043 319.568 20.7267 318.688C20.5492 317.807 20.2581 317.147 19.8533 316.706C19.4486 316.259 18.9054 316.035 18.2237 316.035C17.542 316.035 16.9988 316.259 16.5941 316.706C16.1964 317.147 15.9088 317.807 15.7313 318.688C15.5609 319.568 15.4757 320.662 15.4757 321.968ZM35.5314 321.968C35.5314 323.225 35.432 324.351 35.2331 325.345C35.0414 326.332 34.7361 327.17 34.3171 327.858C33.8982 328.547 33.3514 329.073 32.6768 329.435C32.0023 329.797 31.1857 329.978 30.2271 329.978C29.027 329.978 28.0365 329.662 27.2554 329.03C26.4743 328.391 25.8956 327.475 25.5192 326.282C25.1429 325.082 24.9547 323.644 24.9547 321.968C24.9547 320.292 25.1251 318.858 25.466 317.665C25.8139 316.465 26.3749 315.545 27.1488 314.906C27.9228 314.267 28.9489 313.948 30.2271 313.948C31.4342 313.948 32.4283 314.267 33.2094 314.906C33.9976 315.538 34.5799 316.454 34.9562 317.654C35.3397 318.847 35.5314 320.285 35.5314 321.968ZM27.479 321.968C27.479 323.282 27.5642 324.379 27.7347 325.259C27.9122 326.14 28.2033 326.8 28.6081 327.241C29.0128 327.674 29.5525 327.89 30.2271 327.89C30.9016 327.89 31.4413 327.674 31.8461 327.241C32.2508 326.807 32.5419 326.151 32.7195 325.27C32.9041 324.39 32.9964 323.289 32.9964 321.968C32.9964 320.662 32.9076 319.568 32.7301 318.688C32.5526 317.807 32.2614 317.147 31.8567 316.706C31.452 316.259 30.9087 316.035 30.2271 316.035C29.5454 316.035 29.0022 316.259 28.5974 316.706C28.1998 317.147 27.9122 317.807 27.7347 318.688C27.5642 319.568 27.479 320.662 27.479 321.968ZM47.5347 321.968C47.5347 323.225 47.4353 324.351 47.2365 325.345C47.0448 326.332 46.7395 327.17 46.3205 327.858C45.9016 328.547 45.3548 329.073 44.6802 329.435C44.0056 329.797 43.189 329.978 42.2304 329.978C41.0304 329.978 40.0398 329.662 39.2587 329.03C38.4776 328.391 37.8989 327.475 37.5226 326.282C37.1462 325.082 36.9581 323.644 36.9581 321.968C36.9581 320.292 37.1285 318.858 37.4693 317.665C37.8173 316.465 38.3782 315.545 39.1522 314.906C39.9262 314.267 40.9523 313.948 42.2304 313.948C43.4376 313.948 44.4317 314.267 45.2128 314.906C46.001 315.538 46.5832 316.454 46.9596 317.654C47.343 318.847 47.5347 320.285 47.5347 321.968ZM39.4824 321.968C39.4824 323.282 39.5676 324.379 39.738 325.259C39.9156 326.14 40.2067 326.8 40.6114 327.241C41.0162 327.674 41.5558 327.89 42.2304 327.89C42.905 327.89 43.4447 327.674 43.8494 327.241C44.2542 326.807 44.5453 326.151 44.7228 325.27C44.9074 324.39 44.9998 323.289 44.9998 321.968C44.9998 320.662 44.911 319.568 44.7335 318.688C44.5559 317.807 44.2648 317.147 43.8601 316.706C43.4553 316.259 42.9121 316.035 42.2304 316.035C41.5487 316.035 41.0055 316.259 40.6008 316.706C40.2031 317.147 39.9156 317.807 39.738 318.688C39.5676 319.568 39.4824 320.662 39.4824 321.968ZM59.5381 321.968C59.5381 323.225 59.4387 324.351 59.2399 325.345C59.0482 326.332 58.7428 327.17 58.3239 327.858C57.9049 328.547 57.3582 329.073 56.6836 329.435C56.009 329.797 55.1924 329.978 54.2338 329.978C53.0337 329.978 52.0432 329.662 51.2621 329.03C50.481 328.391 49.9023 327.475 49.5259 326.282C49.1496 325.082 48.9614 323.644 48.9614 321.968C48.9614 320.292 49.1318 318.858 49.4727 317.665C49.8206 316.465 50.3816 315.545 51.1556 314.906C51.9296 314.267 52.9556 313.948 54.2338 313.948C55.4409 313.948 56.435 314.267 57.2161 314.906C58.0043 315.538 58.5866 316.454 58.9629 317.654C59.3464 318.847 59.5381 320.285 59.5381 321.968ZM51.4858 321.968C51.4858 323.282 51.571 324.379 51.7414 325.259C51.9189 326.14 52.2101 326.8 52.6148 327.241C53.0195 327.674 53.5592 327.89 54.2338 327.89C54.9084 327.89 55.448 327.674 55.8528 327.241C56.2575 326.807 56.5487 326.151 56.7262 325.27C56.9108 324.39 57.0031 323.289 57.0031 321.968C57.0031 320.662 56.9144 319.568 56.7368 318.688C56.5593 317.807 56.2682 317.147 55.8634 316.706C55.4587 316.259 54.9155 316.035 54.2338 316.035C53.5521 316.035 53.0089 316.259 52.6041 316.706C52.2065 317.147 51.9189 317.807 51.7414 318.688C51.571 319.568 51.4858 320.662 51.4858 321.968Z" fill="#646464"/>
<path d="M569 460.153L569 462.667L558.977 462.667C558.643 462.667 558.31 462.664 557.976 462.657C557.642 462.649 557.316 462.642 556.996 462.635C556.676 462.621 556.371 462.603 556.08 462.582C556.243 462.731 556.421 462.916 556.613 463.136C556.804 463.349 557.003 463.576 557.209 463.818L558.636 465.607L557.049 466.864L553.428 462.241L553.428 460.153L569 460.153ZM560.064 444.987C560.987 444.987 561.892 445.054 562.78 445.189C563.667 445.317 564.498 445.544 565.272 445.871C566.046 446.19 566.731 446.634 567.328 447.202C567.917 447.763 568.379 448.473 568.712 449.332C569.046 450.192 569.213 451.228 569.213 452.443C569.213 452.748 569.195 453.103 569.16 453.508C569.131 453.905 569.089 454.232 569.032 454.488L566.944 454.488C567.022 454.218 567.086 453.916 567.136 453.582C567.179 453.241 567.2 452.904 567.2 452.57C567.2 451.257 566.955 450.234 566.465 449.503C565.975 448.764 565.3 448.242 564.441 447.937C563.582 447.625 562.606 447.447 561.512 447.405L561.512 447.532C561.853 447.738 562.165 447.997 562.449 448.31C562.726 448.622 562.95 449.009 563.121 449.471C563.284 449.932 563.365 450.493 563.365 451.154C563.365 452.048 563.177 452.83 562.801 453.497C562.425 454.157 561.878 454.672 561.161 455.041C560.436 455.404 559.567 455.585 558.551 455.585C557.45 455.585 556.503 455.375 555.707 454.956C554.912 454.537 554.301 453.944 553.875 453.178C553.442 452.411 553.225 451.509 553.225 450.472C553.225 449.691 553.368 448.97 553.652 448.31C553.928 447.642 554.355 447.06 554.93 446.563C555.498 446.066 556.211 445.679 557.071 445.402C557.923 445.125 558.92 444.987 560.064 444.987ZM555.292 450.44C555.292 451.228 555.558 451.871 556.091 452.368C556.616 452.865 557.426 453.114 558.519 453.114C559.407 453.114 560.11 452.901 560.628 452.475C561.146 452.048 561.406 451.395 561.406 450.515C561.406 449.904 561.281 449.379 561.033 448.938C560.777 448.491 560.454 448.147 560.064 447.905C559.673 447.657 559.275 447.532 558.871 447.532C558.452 447.532 558.033 447.593 557.614 447.713C557.195 447.827 556.811 448.005 556.463 448.246C556.116 448.487 555.835 448.793 555.622 449.162C555.402 449.524 555.292 449.95 555.292 450.44ZM560.064 432.983C560.987 432.983 561.892 433.051 562.78 433.186C563.667 433.314 564.498 433.541 565.272 433.867C566.046 434.187 566.731 434.631 567.328 435.199C567.917 435.76 568.379 436.47 568.712 437.329C569.046 438.188 569.213 439.225 569.213 440.439C569.213 440.745 569.195 441.1 569.16 441.504C569.131 441.902 569.089 442.229 569.032 442.484L566.944 442.484C567.022 442.214 567.086 441.913 567.136 441.579C567.179 441.238 567.2 440.901 567.2 440.567C567.2 439.253 566.955 438.231 566.465 437.499C565.975 436.761 565.3 436.239 564.441 435.934C563.582 435.621 562.606 435.444 561.512 435.401L561.512 435.529C561.853 435.735 562.165 435.994 562.449 436.307C562.726 436.619 562.95 437.006 563.121 437.468C563.284 437.929 563.365 438.49 563.365 439.15C563.365 440.045 563.177 440.826 562.801 441.494C562.425 442.154 561.878 442.669 561.161 443.038C560.436 443.4 559.567 443.581 558.551 443.581C557.45 443.581 556.503 443.372 555.707 442.953C554.912 442.534 554.301 441.941 553.875 441.174C553.442 440.407 553.225 439.505 553.225 438.469C553.225 437.688 553.368 436.967 553.652 436.307C553.928 435.639 554.355 435.057 554.93 434.56C555.498 434.063 556.211 433.676 557.071 433.399C557.923 433.122 558.92 432.983 560.064 432.983ZM555.292 438.437C555.292 439.225 555.558 439.868 556.091 440.365C556.616 440.862 557.426 441.11 558.519 441.11C559.407 441.11 560.11 440.897 560.628 440.471C561.146 440.045 561.406 439.392 561.406 438.511C561.406 437.901 561.281 437.375 561.033 436.935C560.777 436.488 560.454 436.143 560.064 435.902C559.673 435.653 559.275 435.529 558.871 435.529C558.452 435.529 558.033 435.589 557.614 435.71C557.195 435.824 556.811 436.001 556.463 436.243C556.116 436.484 555.835 436.789 555.622 437.159C555.402 437.521 555.292 437.947 555.292 438.437ZM559.265 426.21C559.265 425.209 559.446 424.328 559.808 423.568C560.163 422.801 560.688 422.205 561.384 421.779C562.073 421.353 562.918 421.14 563.919 421.14C565.013 421.14 565.957 421.371 566.753 421.832C567.541 422.294 568.148 422.972 568.574 423.866C569 424.761 569.213 425.851 569.213 427.136C569.213 427.953 569.142 428.716 569 429.426C568.858 430.129 568.645 430.737 568.361 431.248L566.103 431.248C566.401 430.715 566.646 430.076 566.838 429.331C567.022 428.585 567.115 427.871 567.115 427.19C567.115 426.465 567.008 425.844 566.795 425.326C566.582 424.807 566.256 424.41 565.815 424.133C565.375 423.849 564.818 423.707 564.143 423.707C563.248 423.707 562.56 423.994 562.077 424.569C561.587 425.138 561.342 426.029 561.342 427.243C561.342 427.669 561.381 428.123 561.459 428.606C561.53 429.082 561.608 429.48 561.693 429.799L561.044 430.896L553.428 430.31L553.428 422.216L555.633 422.216L555.633 428.106L559.51 428.446C559.453 428.191 559.4 427.886 559.35 427.53C559.293 427.175 559.265 426.735 559.265 426.21Z" fill="#646464"/>
<path d="M969 457.969L969 468.514L967.115 468.514L963.025 464.477C962.229 463.696 961.544 463.053 960.969 462.549C960.387 462.045 959.836 461.672 959.318 461.43C958.8 461.182 958.235 461.058 957.624 461.058C956.872 461.058 956.304 461.274 955.92 461.707C955.53 462.141 955.334 462.712 955.334 463.422C955.334 464.097 955.469 464.722 955.739 465.297C956.002 465.865 956.378 466.454 956.868 467.065L955.217 468.439C954.848 468.006 954.511 467.544 954.205 467.054C953.9 466.557 953.659 466.003 953.481 465.393C953.296 464.782 953.204 464.086 953.204 463.305C953.204 462.318 953.382 461.466 953.737 460.749C954.085 460.032 954.571 459.481 955.196 459.098C955.821 458.707 956.549 458.512 957.379 458.512C958.217 458.512 958.991 458.679 959.701 459.013C960.412 459.346 961.115 459.822 961.81 460.44C962.499 461.058 963.248 461.793 964.058 462.645L966.689 465.339L966.806 465.339L966.806 457.969L969 457.969ZM961.203 445.965C962.46 445.965 963.586 446.065 964.58 446.264C965.567 446.455 966.405 446.761 967.093 447.18C967.782 447.599 968.308 448.145 968.67 448.82C969.032 449.495 969.213 450.311 969.213 451.27C969.213 452.47 968.897 453.46 968.265 454.241C967.626 455.023 966.71 455.601 965.517 455.978C964.317 456.354 962.879 456.542 961.203 456.542C959.527 456.542 958.093 456.372 956.9 456.031C955.7 455.683 954.781 455.122 954.141 454.348C953.502 453.574 953.183 452.548 953.183 451.27C953.183 450.063 953.502 449.068 954.141 448.287C954.773 447.499 955.689 446.917 956.89 446.541C958.082 446.157 959.52 445.965 961.203 445.965ZM961.203 454.018C962.517 454.018 963.614 453.933 964.495 453.762C965.375 453.585 966.035 453.293 966.476 452.889C966.909 452.484 967.125 451.944 967.125 451.27C967.125 450.595 966.909 450.055 966.476 449.651C966.042 449.246 965.386 448.955 964.505 448.777C963.625 448.593 962.524 448.5 961.203 448.5C959.897 448.5 958.803 448.589 957.923 448.767C957.042 448.944 956.382 449.235 955.942 449.64C955.494 450.045 955.271 450.588 955.271 451.27C955.271 451.951 955.494 452.495 955.942 452.899C956.382 453.297 957.042 453.585 957.923 453.762C958.803 453.933 959.897 454.018 961.203 454.018ZM969 437.147L969 439.66L958.977 439.66C958.643 439.66 958.31 439.657 957.976 439.65C957.642 439.643 957.316 439.636 956.996 439.628C956.676 439.614 956.371 439.597 956.08 439.575C956.243 439.724 956.421 439.909 956.613 440.129C956.804 440.342 957.003 440.569 957.209 440.811L958.636 442.6L957.049 443.857L953.428 439.234L953.428 437.147L969 437.147ZM959.265 427.21C959.265 426.209 959.446 425.328 959.808 424.568C960.163 423.801 960.688 423.205 961.384 422.779C962.073 422.353 962.918 422.14 963.919 422.14C965.013 422.14 965.957 422.371 966.753 422.832C967.541 423.294 968.148 423.972 968.574 424.866C969 425.761 969.213 426.851 969.213 428.136C969.213 428.953 969.142 429.716 969 430.426C968.858 431.129 968.645 431.737 968.361 432.248L966.103 432.248C966.401 431.715 966.646 431.076 966.838 430.331C967.022 429.585 967.115 428.871 967.115 428.19C967.115 427.465 967.008 426.844 966.795 426.326C966.582 425.807 966.256 425.41 965.815 425.133C965.375 424.849 964.818 424.707 964.143 424.707C963.248 424.707 962.56 424.994 962.077 425.569C961.587 426.138 961.342 427.029 961.342 428.243C961.342 428.669 961.381 429.123 961.459 429.606C961.53 430.082 961.608 430.48 961.693 430.799L961.044 431.896L953.428 431.31L953.428 423.216L955.633 423.216L955.633 429.106L959.51 429.446C959.453 429.191 959.4 428.886 959.35 428.53C959.293 428.175 959.265 427.735 959.265 427.21Z" fill="#646464"/>
<path d="M169 460.153L169 462.667L158.977 462.667C158.643 462.667 158.31 462.664 157.976 462.656C157.642 462.649 157.316 462.642 156.996 462.635C156.676 462.621 156.371 462.603 156.08 462.582C156.243 462.731 156.421 462.916 156.613 463.136C156.804 463.349 157.003 463.576 157.209 463.817L158.636 465.607L157.049 466.864L153.428 462.241L153.428 460.153L169 460.153ZM160.064 444.987C160.987 444.987 161.892 445.054 162.78 445.189C163.667 445.317 164.498 445.544 165.272 445.871C166.046 446.19 166.731 446.634 167.328 447.202C167.917 447.763 168.379 448.473 168.712 449.332C169.046 450.192 169.213 451.228 169.213 452.443C169.213 452.748 169.195 453.103 169.16 453.508C169.131 453.905 169.089 454.232 169.032 454.488L166.944 454.488C167.022 454.218 167.086 453.916 167.136 453.582C167.179 453.241 167.2 452.904 167.2 452.57C167.2 451.257 166.955 450.234 166.465 449.503C165.975 448.764 165.3 448.242 164.441 447.937C163.582 447.625 162.606 447.447 161.512 447.404L161.512 447.532C161.853 447.738 162.165 447.997 162.449 448.31C162.726 448.622 162.95 449.009 163.121 449.471C163.284 449.932 163.365 450.493 163.365 451.154C163.365 452.048 163.177 452.83 162.801 453.497C162.425 454.157 161.878 454.672 161.161 455.041C160.436 455.404 159.567 455.585 158.551 455.585C157.45 455.585 156.503 455.375 155.707 454.956C154.912 454.537 154.301 453.944 153.875 453.177C153.442 452.411 153.225 451.509 153.225 450.472C153.225 449.691 153.368 448.97 153.652 448.31C153.928 447.642 154.355 447.06 154.93 446.563C155.498 446.066 156.211 445.679 157.071 445.402C157.923 445.125 158.92 444.987 160.064 444.987ZM155.292 450.44C155.292 451.228 155.558 451.871 156.091 452.368C156.616 452.865 157.426 453.114 158.519 453.114C159.407 453.114 160.11 452.901 160.628 452.474C161.146 452.048 161.406 451.395 161.406 450.515C161.406 449.904 161.281 449.379 161.033 448.938C160.777 448.491 160.454 448.147 160.064 447.905C159.673 447.657 159.275 447.532 158.871 447.532C158.452 447.532 158.033 447.593 157.614 447.713C157.195 447.827 156.811 448.005 156.463 448.246C156.116 448.487 155.835 448.793 155.622 449.162C155.402 449.524 155.292 449.95 155.292 450.44ZM169 441.728L155.622 435.614L155.622 443.698L153.428 443.698L153.428 432.919L155.143 432.919L169 439.033L169 441.728ZM159.265 426.21C159.265 425.208 159.446 424.328 159.808 423.568C160.163 422.801 160.688 422.205 161.384 421.779C162.073 421.353 162.918 421.14 163.919 421.14C165.013 421.14 165.957 421.37 166.753 421.832C167.541 422.294 168.148 422.972 168.574 423.866C169 424.761 169.213 425.851 169.213 427.136C169.213 427.953 169.142 428.716 169 429.426C168.858 430.129 168.645 430.736 168.361 431.248L166.103 431.248C166.401 430.715 166.646 430.076 166.838 429.33C167.022 428.585 167.115 427.871 167.115 427.19C167.115 426.465 167.008 425.844 166.795 425.326C166.582 424.807 166.256 424.41 165.815 424.133C165.375 423.849 164.818 423.707 164.143 423.707C163.248 423.707 162.56 423.994 162.077 424.569C161.587 425.137 161.342 426.029 161.342 427.243C161.342 427.669 161.381 428.123 161.459 428.606C161.53 429.082 161.608 429.48 161.693 429.799L161.044 430.896L153.428 430.31L153.428 422.215L155.633 422.215L155.633 428.106L159.51 428.446C159.453 428.191 159.4 427.885 159.35 427.53C159.293 427.175 159.265 426.735 159.265 426.21Z" fill="#646464"/>
<path d="M370 460.153L370 462.667L359.977 462.667C359.643 462.667 359.31 462.664 358.976 462.657C358.642 462.649 358.316 462.642 357.996 462.635C357.676 462.621 357.371 462.603 357.08 462.582C357.243 462.731 357.421 462.916 357.613 463.136C357.804 463.349 358.003 463.576 358.209 463.817L359.636 465.607L358.049 466.864L354.428 462.241L354.428 460.153L370 460.153ZM361.064 444.987C361.987 444.987 362.892 445.054 363.78 445.189C364.667 445.317 365.498 445.544 366.272 445.871C367.046 446.19 367.731 446.634 368.328 447.202C368.917 447.763 369.379 448.473 369.712 449.332C370.046 450.192 370.213 451.228 370.213 452.443C370.213 452.748 370.195 453.103 370.16 453.508C370.131 453.905 370.089 454.232 370.032 454.488L367.944 454.488C368.022 454.218 368.086 453.916 368.136 453.582C368.179 453.241 368.2 452.904 368.2 452.57C368.2 451.257 367.955 450.234 367.465 449.503C366.975 448.764 366.3 448.242 365.441 447.937C364.582 447.625 363.606 447.447 362.512 447.405L362.512 447.532C362.853 447.738 363.165 447.997 363.449 448.31C363.726 448.622 363.95 449.009 364.121 449.471C364.284 449.932 364.365 450.493 364.365 451.154C364.365 452.048 364.177 452.83 363.801 453.497C363.425 454.157 362.878 454.672 362.161 455.041C361.436 455.404 360.567 455.585 359.551 455.585C358.45 455.585 357.503 455.375 356.707 454.956C355.912 454.537 355.301 453.944 354.875 453.177C354.442 452.411 354.225 451.509 354.225 450.472C354.225 449.691 354.368 448.97 354.652 448.31C354.928 447.642 355.355 447.06 355.93 446.563C356.498 446.066 357.211 445.679 358.071 445.402C358.923 445.125 359.92 444.987 361.064 444.987ZM356.292 450.44C356.292 451.228 356.558 451.871 357.091 452.368C357.616 452.865 358.426 453.114 359.519 453.114C360.407 453.114 361.11 452.901 361.628 452.475C362.146 452.048 362.406 451.395 362.406 450.515C362.406 449.904 362.281 449.379 362.033 448.938C361.777 448.491 361.454 448.147 361.064 447.905C360.673 447.657 360.275 447.532 359.871 447.532C359.452 447.532 359.033 447.593 358.614 447.713C358.195 447.827 357.811 448.005 357.463 448.246C357.116 448.487 356.835 448.793 356.622 449.162C356.402 449.524 356.292 449.95 356.292 450.44ZM354.215 438.256C354.215 437.354 354.357 436.541 354.641 435.817C354.918 435.092 355.333 434.517 355.887 434.091C356.441 433.665 357.126 433.452 357.943 433.452C358.575 433.452 359.125 433.583 359.594 433.846C360.062 434.102 360.474 434.45 360.829 434.89C361.177 435.33 361.486 435.824 361.756 436.37C362.054 435.76 362.399 435.199 362.789 434.688C363.173 434.169 363.623 433.754 364.142 433.441C364.66 433.122 365.267 432.962 365.963 432.962C366.837 432.962 367.593 433.186 368.232 433.633C368.864 434.073 369.354 434.688 369.702 435.476C370.043 436.264 370.213 437.183 370.213 438.234C370.213 439.363 370.046 440.326 369.712 441.121C369.379 441.916 368.903 442.52 368.285 442.932C367.66 443.343 366.915 443.549 366.048 443.549C365.331 443.549 364.71 443.407 364.184 443.123C363.659 442.839 363.204 442.459 362.821 441.984C362.438 441.501 362.115 440.972 361.852 440.397C361.561 440.887 361.234 441.334 360.872 441.739C360.503 442.143 360.08 442.466 359.604 442.708C359.122 442.942 358.564 443.059 357.932 443.059C357.123 443.059 356.445 442.843 355.898 442.41C355.344 441.977 354.925 441.398 354.641 440.674C354.357 439.942 354.215 439.136 354.215 438.256ZM365.953 441.163C366.634 441.163 367.195 440.922 367.635 440.439C368.076 439.956 368.296 439.236 368.296 438.277C368.296 437.325 368.079 436.601 367.646 436.104C367.213 435.607 366.641 435.359 365.931 435.359C365.477 435.359 365.076 435.486 364.728 435.742C364.38 435.991 364.071 436.328 363.801 436.754C363.524 437.173 363.268 437.638 363.034 438.149L362.896 438.49C363.13 439.044 363.396 439.52 363.694 439.917C363.986 440.315 364.316 440.624 364.685 440.844C365.054 441.057 365.477 441.163 365.953 441.163ZM356.143 438.277C356.143 438.966 356.313 439.534 356.654 439.981C356.988 440.421 357.471 440.642 358.103 440.642C358.55 440.642 358.933 440.535 359.253 440.322C359.572 440.102 359.849 439.807 360.084 439.438C360.311 439.069 360.524 438.66 360.723 438.213C360.531 437.78 360.322 437.389 360.094 437.041C359.86 436.686 359.583 436.406 359.264 436.2C358.937 435.987 358.546 435.88 358.092 435.88C357.467 435.88 356.988 436.104 356.654 436.551C356.313 436.992 356.143 437.567 356.143 438.277ZM360.265 426.21C360.265 425.208 360.446 424.328 360.808 423.568C361.163 422.801 361.688 422.205 362.384 421.779C363.073 421.353 363.918 421.14 364.919 421.14C366.013 421.14 366.957 421.37 367.753 421.832C368.541 422.294 369.148 422.972 369.574 423.866C370 424.761 370.213 425.851 370.213 427.136C370.213 427.953 370.142 428.716 370 429.426C369.858 430.129 369.645 430.736 369.361 431.248L367.103 431.248C367.401 430.715 367.646 430.076 367.838 429.331C368.022 428.585 368.115 427.871 368.115 427.19C368.115 426.465 368.008 425.844 367.795 425.326C367.582 424.807 367.256 424.41 366.815 424.133C366.375 423.849 365.818 423.707 365.143 423.707C364.248 423.707 363.56 423.994 363.077 424.569C362.587 425.137 362.342 426.029 362.342 427.243C362.342 427.669 362.381 428.123 362.459 428.606C362.53 429.082 362.608 429.48 362.693 429.799L362.044 430.896L354.428 430.31L354.428 422.215L356.633 422.215L356.633 428.106L360.51 428.446C360.453 428.191 360.4 427.886 360.35 427.53C360.293 427.175 360.265 426.735 360.265 426.21Z" fill="#646464"/>
<path d="M769 456.969L769 467.513L767.115 467.513L763.025 463.477C762.229 462.696 761.544 462.053 760.969 461.549C760.387 461.045 759.836 460.672 759.318 460.43C758.8 460.182 758.235 460.058 757.624 460.058C756.872 460.058 756.304 460.274 755.92 460.707C755.53 461.14 755.334 461.712 755.334 462.422C755.334 463.097 755.469 463.722 755.739 464.297C756.002 464.865 756.378 465.454 756.868 466.065L755.217 467.439C754.848 467.006 754.511 466.544 754.205 466.054C753.9 465.557 753.659 465.003 753.481 464.393C753.297 463.782 753.204 463.086 753.204 462.305C753.204 461.318 753.382 460.466 753.737 459.749C754.085 459.032 754.571 458.481 755.196 458.098C755.821 457.707 756.549 457.512 757.379 457.512C758.217 457.512 758.991 457.679 759.701 458.013C760.412 458.346 761.115 458.822 761.81 459.44C762.499 460.058 763.248 460.793 764.058 461.645L766.689 464.339L766.806 464.339L766.806 456.969L769 456.969ZM761.203 444.965C762.46 444.965 763.586 445.065 764.58 445.264C765.567 445.455 766.405 445.761 767.093 446.18C767.782 446.599 768.308 447.145 768.67 447.82C769.032 448.494 769.213 449.311 769.213 450.27C769.213 451.47 768.897 452.46 768.265 453.241C767.626 454.022 766.71 454.601 765.517 454.978C764.317 455.354 762.879 455.542 761.203 455.542C759.527 455.542 758.093 455.372 756.9 455.031C755.7 454.683 754.781 454.122 754.141 453.348C753.502 452.574 753.183 451.548 753.183 450.27C753.183 449.063 753.502 448.068 754.141 447.287C754.773 446.499 755.689 445.917 756.89 445.541C758.082 445.157 759.52 444.965 761.203 444.965ZM761.203 453.018C762.517 453.018 763.614 452.933 764.495 452.762C765.375 452.585 766.035 452.293 766.476 451.889C766.909 451.484 767.125 450.944 767.125 450.27C767.125 449.595 766.909 449.055 766.476 448.651C766.042 448.246 765.386 447.955 764.505 447.777C763.625 447.593 762.524 447.5 761.203 447.5C759.897 447.5 758.803 447.589 757.923 447.767C757.042 447.944 756.382 448.235 755.942 448.64C755.494 449.045 755.271 449.588 755.271 450.27C755.271 450.951 755.494 451.495 755.942 451.899C756.382 452.297 757.042 452.585 757.923 452.762C758.803 452.933 759.897 453.018 761.203 453.018ZM761.203 432.962C762.46 432.962 763.586 433.061 764.58 433.26C765.567 433.452 766.405 433.757 767.093 434.176C767.782 434.595 768.308 435.142 768.67 435.817C769.032 436.491 769.213 437.308 769.213 438.266C769.213 439.466 768.897 440.457 768.265 441.238C767.626 442.019 766.71 442.598 765.517 442.974C764.317 443.351 762.879 443.539 761.203 443.539C759.527 443.539 758.093 443.368 756.9 443.027C755.7 442.68 754.781 442.119 754.141 441.345C753.502 440.571 753.183 439.544 753.183 438.266C753.183 437.059 753.502 436.065 754.141 435.284C754.773 434.496 755.689 433.914 756.89 433.537C758.082 433.154 759.52 432.962 761.203 432.962ZM761.203 441.014C762.517 441.014 763.614 440.929 764.495 440.759C765.375 440.581 766.035 440.29 766.476 439.885C766.909 439.481 767.125 438.941 767.125 438.266C767.125 437.592 766.909 437.052 766.476 436.647C766.042 436.243 765.386 435.951 764.505 435.774C763.625 435.589 762.524 435.497 761.203 435.497C759.897 435.497 758.803 435.586 757.923 435.763C757.042 435.941 756.382 436.232 755.942 436.637C755.494 437.041 755.271 437.585 755.271 438.266C755.271 438.948 755.494 439.491 755.942 439.896C756.382 440.294 757.042 440.581 757.923 440.759C758.803 440.929 759.897 441.014 761.203 441.014ZM759.265 426.21C759.265 425.208 759.446 424.328 759.808 423.568C760.163 422.801 760.688 422.205 761.384 421.779C762.073 421.353 762.918 421.14 763.919 421.14C765.013 421.14 765.957 421.37 766.753 421.832C767.541 422.294 768.148 422.972 768.574 423.866C769 424.761 769.213 425.851 769.213 427.136C769.213 427.953 769.142 428.716 769 429.426C768.858 430.129 768.645 430.736 768.361 431.248L766.103 431.248C766.401 430.715 766.646 430.076 766.838 429.331C767.022 428.585 767.115 427.871 767.115 427.19C767.115 426.465 767.008 425.844 766.795 425.326C766.582 424.807 766.256 424.41 765.815 424.133C765.375 423.849 764.818 423.707 764.143 423.707C763.248 423.707 762.56 423.994 762.077 424.569C761.587 425.137 761.342 426.029 761.342 427.243C761.342 427.669 761.381 428.123 761.459 428.606C761.53 429.082 761.608 429.48 761.693 429.799L761.044 430.896L753.428 430.31L753.428 422.215L755.633 422.215L755.633 428.106L759.51 428.446C759.453 428.191 759.4 427.886 759.35 427.53C759.293 427.175 759.265 426.735 759.265 426.21Z" fill="#646464"/>
<path d="M11.5247 405.587C11.5247 406.844 11.4252 407.969 11.2264 408.964C11.0347 409.951 10.7294 410.788 10.3104 411.477C9.89146 412.166 9.3447 412.691 8.67012 413.054C7.99554 413.416 7.17894 413.597 6.22033 413.597C5.02029 413.597 4.02972 413.281 3.24863 412.649C2.46754 412.01 1.88882 411.094 1.51248 409.901C1.13613 408.701 0.947961 407.263 0.947961 405.587C0.947961 403.911 1.11838 402.477 1.45922 401.284C1.80716 400.084 2.36813 399.164 3.14212 398.525C3.91611 397.886 4.94218 397.567 6.22033 397.567C7.42747 397.567 8.42159 397.886 9.20268 398.525C9.99087 399.157 10.5731 400.073 10.9495 401.273C11.3329 402.466 11.5247 403.904 11.5247 405.587ZM3.47231 405.587C3.47231 406.901 3.55752 407.998 3.72794 408.878C3.90546 409.759 4.19659 410.419 4.60134 410.859C5.00609 411.293 5.54575 411.509 6.22033 411.509C6.89491 411.509 7.43457 411.293 7.83932 410.859C8.24407 410.426 8.5352 409.769 8.71272 408.889C8.89735 408.008 8.98966 406.908 8.98966 405.587C8.98966 404.281 8.9009 403.187 8.72338 402.306C8.54585 401.426 8.25472 400.766 7.84997 400.325C7.44523 399.878 6.90201 399.654 6.22033 399.654C5.53865 399.654 4.99544 399.878 4.59069 400.325C4.19304 400.766 3.90546 401.426 3.72794 402.306C3.55752 403.187 3.47231 404.281 3.47231 405.587Z" fill="#646464"/>
<path d="M10.9282 151.723C10.9282 152.426 10.7862 153.037 10.5021 153.555C10.2181 154.073 9.82756 154.499 9.3305 154.833C8.84054 155.16 8.27247 155.394 7.6263 155.536V155.611C8.86894 155.767 9.80625 156.157 10.4382 156.782C11.0773 157.407 11.3968 158.234 11.3968 159.264C11.3968 160.166 11.1803 160.972 10.7471 161.682C10.314 162.385 9.65003 162.939 8.75533 163.343C7.86062 163.748 6.71029 163.951 5.30432 163.951C4.45932 163.951 3.67468 163.883 2.9504 163.748C2.23321 163.613 1.55153 163.397 0.905356 163.098V160.872C1.56573 161.199 2.26872 161.451 3.0143 161.629C3.75989 161.806 4.46643 161.895 5.1339 161.895C6.43336 161.895 7.36002 161.653 7.91388 161.171C8.46775 160.681 8.74468 160.006 8.74468 159.147C8.74468 158.593 8.59911 158.139 8.30798 157.783C8.02394 157.428 7.58014 157.162 6.97657 156.985C6.3801 156.807 5.60966 156.718 4.66525 156.718H3.29124V154.705H4.6759C5.57771 154.705 6.30199 154.599 6.84876 154.386C7.39552 154.166 7.78962 153.864 8.03104 153.48C8.27957 153.097 8.40384 152.65 8.40384 152.138C8.40384 151.471 8.18726 150.952 7.75411 150.583C7.32096 150.207 6.67834 150.019 5.82623 150.019C5.30077 150.019 4.82147 150.079 4.38832 150.2C3.96227 150.321 3.56817 150.473 3.20603 150.658C2.84388 150.842 2.49949 151.041 2.17286 151.254L0.969264 149.518C1.55863 149.078 2.26162 148.705 3.07821 148.4C3.89481 148.094 4.84632 147.942 5.93275 147.942C7.53044 147.942 8.76243 148.286 9.62873 148.975C10.495 149.657 10.9282 150.573 10.9282 151.723ZM23.528 155.941C23.528 157.198 23.4286 158.323 23.2298 159.317C23.0381 160.304 22.7327 161.142 22.3138 161.831C21.8948 162.52 21.3481 163.045 20.6735 163.407C19.9989 163.77 19.1823 163.951 18.2237 163.951C17.0237 163.951 16.0331 163.635 15.252 163.003C14.4709 162.364 13.8922 161.448 13.5158 160.255C13.1395 159.055 12.9513 157.617 12.9513 155.941C12.9513 154.265 13.1217 152.831 13.4626 151.638C13.8105 150.438 14.3715 149.518 15.1455 148.879C15.9195 148.24 16.9455 147.92 18.2237 147.92C19.4308 147.92 20.425 148.24 21.206 148.879C21.9942 149.511 22.5765 150.427 22.9529 151.627C23.3363 152.82 23.528 154.258 23.528 155.941ZM15.4757 155.941C15.4757 157.254 15.5609 158.352 15.7313 159.232C15.9088 160.113 16.2 160.773 16.6047 161.213C17.0095 161.646 17.5491 161.863 18.2237 161.863C18.8983 161.863 19.4379 161.646 19.8427 161.213C20.2474 160.78 20.5386 160.123 20.7161 159.243C20.9007 158.362 20.993 157.262 20.993 155.941C20.993 154.634 20.9043 153.541 20.7267 152.66C20.5492 151.78 20.2581 151.119 19.8533 150.679C19.4486 150.232 18.9054 150.008 18.2237 150.008C17.542 150.008 16.9988 150.232 16.5941 150.679C16.1964 151.119 15.9088 151.78 15.7313 152.66C15.5609 153.541 15.4757 154.634 15.4757 155.941ZM35.5314 155.941C35.5314 157.198 35.432 158.323 35.2331 159.317C35.0414 160.304 34.7361 161.142 34.3171 161.831C33.8982 162.52 33.3514 163.045 32.6768 163.407C32.0023 163.77 31.1857 163.951 30.2271 163.951C29.027 163.951 28.0365 163.635 27.2554 163.003C26.4743 162.364 25.8956 161.448 25.5192 160.255C25.1429 159.055 24.9547 157.617 24.9547 155.941C24.9547 154.265 25.1251 152.831 25.466 151.638C25.8139 150.438 26.3749 149.518 27.1488 148.879C27.9228 148.24 28.9489 147.92 30.2271 147.92C31.4342 147.92 32.4283 148.24 33.2094 148.879C33.9976 149.511 34.5799 150.427 34.9562 151.627C35.3397 152.82 35.5314 154.258 35.5314 155.941ZM27.479 155.941C27.479 157.254 27.5642 158.352 27.7347 159.232C27.9122 160.113 28.2033 160.773 28.6081 161.213C29.0128 161.646 29.5525 161.863 30.2271 161.863C30.9016 161.863 31.4413 161.646 31.8461 161.213C32.2508 160.78 32.5419 160.123 32.7195 159.243C32.9041 158.362 32.9964 157.262 32.9964 155.941C32.9964 154.634 32.9076 153.541 32.7301 152.66C32.5526 151.78 32.2614 151.119 31.8567 150.679C31.452 150.232 30.9087 150.008 30.2271 150.008C29.5454 150.008 29.0022 150.232 28.5974 150.679C28.1998 151.119 27.9122 151.78 27.7347 152.66C27.5642 153.541 27.479 154.634 27.479 155.941ZM47.5347 155.941C47.5347 157.198 47.4353 158.323 47.2365 159.317C47.0448 160.304 46.7395 161.142 46.3205 161.831C45.9016 162.52 45.3548 163.045 44.6802 163.407C44.0056 163.77 43.189 163.951 42.2304 163.951C41.0304 163.951 40.0398 163.635 39.2587 163.003C38.4776 162.364 37.8989 161.448 37.5226 160.255C37.1462 159.055 36.9581 157.617 36.9581 155.941C36.9581 154.265 37.1285 152.831 37.4693 151.638C37.8173 150.438 38.3782 149.518 39.1522 148.879C39.9262 148.24 40.9523 147.92 42.2304 147.92C43.4376 147.92 44.4317 148.24 45.2128 148.879C46.001 149.511 46.5832 150.427 46.9596 151.627C47.343 152.82 47.5347 154.258 47.5347 155.941ZM39.4824 155.941C39.4824 157.254 39.5676 158.352 39.738 159.232C39.9156 160.113 40.2067 160.773 40.6114 161.213C41.0162 161.646 41.5558 161.863 42.2304 161.863C42.905 161.863 43.4447 161.646 43.8494 161.213C44.2542 160.78 44.5453 160.123 44.7228 159.243C44.9074 158.362 44.9998 157.262 44.9998 155.941C44.9998 154.634 44.911 153.541 44.7335 152.66C44.5559 151.78 44.2648 151.119 43.8601 150.679C43.4553 150.232 42.9121 150.008 42.2304 150.008C41.5487 150.008 41.0055 150.232 40.6008 150.679C40.2031 151.119 39.9156 151.78 39.738 152.66C39.5676 153.541 39.4824 154.634 39.4824 155.941ZM59.5381 155.941C59.5381 157.198 59.4387 158.323 59.2399 159.317C59.0482 160.304 58.7428 161.142 58.3239 161.831C57.9049 162.52 57.3582 163.045 56.6836 163.407C56.009 163.77 55.1924 163.951 54.2338 163.951C53.0337 163.951 52.0432 163.635 51.2621 163.003C50.481 162.364 49.9023 161.448 49.5259 160.255C49.1496 159.055 48.9614 157.617 48.9614 155.941C48.9614 154.265 49.1318 152.831 49.4727 151.638C49.8206 150.438 50.3816 149.518 51.1556 148.879C51.9296 148.24 52.9556 147.92 54.2338 147.92C55.4409 147.92 56.435 148.24 57.2161 148.879C58.0043 149.511 58.5866 150.427 58.9629 151.627C59.3464 152.82 59.5381 154.258 59.5381 155.941ZM51.4858 155.941C51.4858 157.254 51.571 158.352 51.7414 159.232C51.9189 160.113 52.2101 160.773 52.6148 161.213C53.0195 161.646 53.5592 161.863 54.2338 161.863C54.9084 161.863 55.448 161.646 55.8528 161.213C56.2575 160.78 56.5487 160.123 56.7262 159.243C56.9108 158.362 57.0031 157.262 57.0031 155.941C57.0031 154.634 56.9144 153.541 56.7368 152.66C56.5593 151.78 56.2682 151.119 55.8634 150.679C55.4587 150.232 54.9155 150.008 54.2338 150.008C53.5521 150.008 53.0089 150.232 52.6041 150.679C52.2065 151.119 51.9189 151.78 51.7414 152.66C51.571 153.541 51.4858 154.634 51.4858 155.941Z" fill="#646464"/>
<path d="M11.5247 247.357H0.979915V245.471L5.01674 241.381C5.79783 240.586 6.44046 239.901 6.94462 239.326C7.44878 238.743 7.82157 238.193 8.063 237.675C8.31153 237.156 8.43579 236.592 8.43579 235.981C8.43579 235.228 8.21922 234.66 7.78607 234.277C7.35291 233.886 6.7813 233.691 6.07121 233.691C5.39663 233.691 4.77176 233.826 4.19659 234.096C3.62853 234.359 3.03916 234.735 2.42849 235.225L1.05447 233.574C1.48762 233.205 1.94918 232.867 2.43914 232.562C2.9362 232.257 3.49006 232.015 4.10073 231.838C4.7114 231.653 5.40729 231.561 6.18838 231.561C7.17539 231.561 8.02749 231.738 8.74468 232.093C9.46186 232.441 10.0122 232.928 10.3956 233.553C10.7862 234.178 10.9814 234.905 10.9814 235.736C10.9814 236.574 10.8146 237.348 10.4808 238.058C10.1471 238.768 9.67134 239.471 9.05356 240.167C8.43579 240.856 7.70086 241.605 6.84876 242.415L4.15399 245.045V245.163H11.5247V247.357ZM23.528 239.56C23.528 240.817 23.4286 241.942 23.2298 242.936C23.0381 243.923 22.7327 244.761 22.3138 245.45C21.8948 246.139 21.3481 246.664 20.6735 247.027C19.9989 247.389 19.1823 247.57 18.2237 247.57C17.0237 247.57 16.0331 247.254 15.252 246.622C14.4709 245.983 13.8922 245.067 13.5158 243.874C13.1395 242.674 12.9513 241.236 12.9513 239.56C12.9513 237.884 13.1217 236.45 13.4626 235.257C13.8105 234.057 14.3715 233.137 15.1455 232.498C15.9195 231.859 16.9455 231.54 18.2237 231.54C19.4308 231.54 20.425 231.859 21.206 232.498C21.9942 233.13 22.5765 234.046 22.9529 235.246C23.3363 236.439 23.528 237.877 23.528 239.56ZM15.4757 239.56C15.4757 240.874 15.5609 241.971 15.7313 242.851C15.9088 243.732 16.2 244.392 16.6047 244.832C17.0095 245.265 17.5491 245.482 18.2237 245.482C18.8983 245.482 19.4379 245.265 19.8427 244.832C20.2474 244.399 20.5386 243.742 20.7161 242.862C20.9007 241.981 20.993 240.881 20.993 239.56C20.993 238.253 20.9043 237.16 20.7267 236.279C20.5492 235.399 20.2581 234.739 19.8533 234.298C19.4486 233.851 18.9054 233.627 18.2237 233.627C17.542 233.627 16.9988 233.851 16.5941 234.298C16.1964 234.739 15.9088 235.399 15.7313 236.279C15.5609 237.16 15.4757 238.253 15.4757 239.56ZM35.5314 239.56C35.5314 240.817 35.432 241.942 35.2331 242.936C35.0414 243.923 34.7361 244.761 34.3171 245.45C33.8982 246.139 33.3514 246.664 32.6768 247.027C32.0023 247.389 31.1857 247.57 30.2271 247.57C29.027 247.57 28.0365 247.254 27.2554 246.622C26.4743 245.983 25.8956 245.067 25.5192 243.874C25.1429 242.674 24.9547 241.236 24.9547 239.56C24.9547 237.884 25.1251 236.45 25.466 235.257C25.8139 234.057 26.3749 233.137 27.1488 232.498C27.9228 231.859 28.9489 231.54 30.2271 231.54C31.4342 231.54 32.4283 231.859 33.2094 232.498C33.9976 233.13 34.5799 234.046 34.9562 235.246C35.3397 236.439 35.5314 237.877 35.5314 239.56ZM27.479 239.56C27.479 240.874 27.5642 241.971 27.7347 242.851C27.9122 243.732 28.2033 244.392 28.6081 244.832C29.0128 245.265 29.5525 245.482 30.2271 245.482C30.9016 245.482 31.4413 245.265 31.8461 244.832C32.2508 244.399 32.5419 243.742 32.7195 242.862C32.9041 241.981 32.9964 240.881 32.9964 239.56C32.9964 238.253 32.9076 237.16 32.7301 236.279C32.5526 235.399 32.2614 234.739 31.8567 234.298C31.452 233.851 30.9087 233.627 30.2271 233.627C29.5454 233.627 29.0022 233.851 28.5974 234.298C28.1998 234.739 27.9122 235.399 27.7347 236.279C27.5642 237.16 27.479 238.253 27.479 239.56ZM47.5347 239.56C47.5347 240.817 47.4353 241.942 47.2365 242.936C47.0448 243.923 46.7395 244.761 46.3205 245.45C45.9016 246.139 45.3548 246.664 44.6802 247.027C44.0056 247.389 43.189 247.57 42.2304 247.57C41.0304 247.57 40.0398 247.254 39.2587 246.622C38.4776 245.983 37.8989 245.067 37.5226 243.874C37.1462 242.674 36.9581 241.236 36.9581 239.56C36.9581 237.884 37.1285 236.45 37.4693 235.257C37.8173 234.057 38.3782 233.137 39.1522 232.498C39.9262 231.859 40.9523 231.54 42.2304 231.54C43.4376 231.54 44.4317 231.859 45.2128 232.498C46.001 233.13 46.5832 234.046 46.9596 235.246C47.343 236.439 47.5347 237.877 47.5347 239.56ZM39.4824 239.56C39.4824 240.874 39.5676 241.971 39.738 242.851C39.9156 243.732 40.2067 244.392 40.6114 244.832C41.0162 245.265 41.5558 245.482 42.2304 245.482C42.905 245.482 43.4447 245.265 43.8494 244.832C44.2542 244.399 44.5453 243.742 44.7228 242.862C44.9074 241.981 44.9998 240.881 44.9998 239.56C44.9998 238.253 44.911 237.16 44.7335 236.279C44.5559 235.399 44.2648 234.739 43.8601 234.298C43.4553 233.851 42.9121 233.627 42.2304 233.627C41.5487 233.627 41.0055 233.851 40.6008 234.298C40.2031 234.739 39.9156 235.399 39.738 236.279C39.5676 237.16 39.4824 238.253 39.4824 239.56ZM59.5381 239.56C59.5381 240.817 59.4387 241.942 59.2399 242.936C59.0482 243.923 58.7428 244.761 58.3239 245.45C57.9049 246.139 57.3582 246.664 56.6836 247.027C56.009 247.389 55.1924 247.57 54.2338 247.57C53.0337 247.57 52.0432 247.254 51.2621 246.622C50.481 245.983 49.9023 245.067 49.5259 243.874C49.1496 242.674 48.9614 241.236 48.9614 239.56C48.9614 237.884 49.1318 236.45 49.4727 235.257C49.8206 234.057 50.3816 233.137 51.1556 232.498C51.9296 231.859 52.9556 231.54 54.2338 231.54C55.4409 231.54 56.435 231.859 57.2161 232.498C58.0043 233.13 58.5866 234.046 58.9629 235.246C59.3464 236.439 59.5381 237.877 59.5381 239.56ZM51.4858 239.56C51.4858 240.874 51.571 241.971 51.7414 242.851C51.9189 243.732 52.2101 244.392 52.6148 244.832C53.0195 245.265 53.5592 245.482 54.2338 245.482C54.9084 245.482 55.448 245.265 55.8528 244.832C56.2575 244.399 56.5487 243.742 56.7262 242.862C56.9108 241.981 57.0031 240.881 57.0031 239.56C57.0031 238.253 56.9144 237.16 56.7368 236.279C56.5593 235.399 56.2682 234.739 55.8634 234.298C55.4587 233.851 54.9155 233.627 54.2338 233.627C53.5521 233.627 53.0089 233.851 52.6041 234.298C52.2065 234.739 51.9189 235.399 51.7414 236.279C51.571 237.16 51.4858 238.253 51.4858 239.56Z" fill="#646464"/>
<path d="M118 64H1003" stroke="#E4E4E4" stroke-opacity="0.5" stroke-width="3.63563"/>
<path d="M159 410L159 45" stroke="#E4E4E4" stroke-opacity="0.5" stroke-width="3.63563"/>
<path d="M360 410L360 45" stroke="#E4E4E4" stroke-opacity="0.5" stroke-width="3.63563"/>
<path d="M559 410V45" stroke="#E4E4E4" stroke-opacity="0.5" stroke-width="3.63563"/>
<path d="M759 410V45" stroke="#E4E4E4" stroke-opacity="0.5" stroke-width="3.63563"/>
<path d="M959 410V45" stroke="#E4E4E4" stroke-opacity="0.5" stroke-width="3.63563"/>
<path d="M118 148H1003" stroke="#E4E4E4" stroke-opacity="0.5" stroke-width="3.63563"/>
<path d="M118 232H1003" stroke="#E4E4E4" stroke-opacity="0.5" stroke-width="3.63563"/>
<path d="M118 314H1003" stroke="#E4E4E4" stroke-opacity="0.5" stroke-width="3.63563"/>
<path d="M118 398H1003" stroke="#E4E4E4" stroke-opacity="0.5" stroke-width="3.63563"/>
<path d="M232.356 216.599L159 79V402H971V395.784C971 376.3 955.204 360.504 935.72 360.504C933.065 360.504 930.418 360.804 927.831 361.397L923.932 362.292C918.753 363.48 913.457 364.08 908.144 364.08H821.692L739.712 375.494H706.564C699.587 375.494 692.628 376.185 685.787 377.557L684.822 377.75C678.623 378.993 672.316 379.62 665.994 379.62C659.877 379.62 653.775 380.206 647.77 381.37L644.911 381.924C639.134 383.044 633.263 383.608 627.378 383.608C622.892 383.608 618.412 383.935 613.974 384.588L610.354 385.12C603.505 386.127 596.592 386.633 589.67 386.633H587.599H533.607C523.373 386.633 513.252 384.5 503.889 380.369C496.572 377.14 488.777 375.126 480.811 374.405L439.217 370.638C427.47 369.575 416.004 366.444 405.347 361.391L399.986 358.849C392.136 355.127 385.06 349.956 379.13 343.608C372.512 336.524 364.475 330.914 355.544 327.144L339.201 320.245C325.704 314.548 313.957 305.378 305.154 293.669C300.219 287.104 294.336 281.309 287.699 276.473L278.67 269.894C259.404 255.856 243.57 237.635 232.356 216.599Z" fill="url(#paint0_linear_631_921)"/>
<path d="M159 79L232.366 216.782C243.573 237.83 259.403 256.066 278.667 270.12L287.697 276.707C294.336 281.55 300.218 287.352 305.152 293.923V293.923C313.957 305.648 325.709 314.831 339.215 320.539L355.538 327.437C364.473 331.214 372.512 336.831 379.13 343.924V343.924C385.06 350.279 392.138 355.457 399.991 359.185L405.341 361.725C416.002 366.786 427.474 369.922 439.226 370.987L480.809 374.757C488.776 375.479 496.572 377.496 503.889 380.728V380.728C513.252 384.864 523.375 387 533.61 387H587.599H589.67C596.592 387 603.505 386.494 610.354 385.485L613.974 384.952C618.412 384.299 622.892 383.971 627.378 383.971V383.971C633.263 383.971 639.134 383.406 644.911 382.285L647.771 381.73C653.775 380.565 659.877 379.978 665.994 379.978V379.978C672.316 379.978 678.623 379.351 684.821 378.107L685.787 377.913C692.628 376.539 699.588 375.848 706.565 375.848H739.712L821.692 364.42H908.144C913.457 364.42 918.753 363.819 923.932 362.63V362.63C929.111 361.44 934.407 360.84 939.72 360.84H971" stroke="#FF0000" stroke-width="4.93643" stroke-linejoin="round"/>
<defs>
<linearGradient id="paint0_linear_631_921" x1="580.342" y1="74.1061" x2="580.05" y2="402.001" gradientUnits="userSpaceOnUse">
<stop stop-color="#ADFF00" stop-opacity="0.33"/>
<stop offset="0.828125" stop-color="#FF0000" stop-opacity="0.1"/>
<stop offset="1" stop-color="#FF0000" stop-opacity="0"/>
</linearGradient>
</defs>
</svg>
