<svg width="44" height="50" viewBox="0 0 44 50" fill="none" xmlns="http://www.w3.org/2000/svg">
<g clip-path="url(#clip0_631_778)">
<path d="M15.085 41.9944H3V6.54492H38.4495V18.63" stroke="black" stroke-width="3" stroke-linecap="round" stroke-linejoin="round"/>
<path d="M9 3V10" stroke="black" stroke-width="3" stroke-linecap="round"/>
<path d="M32 3V10" stroke="black" stroke-width="3" stroke-linecap="round"/>
<path d="M3 14.7256L38.4495 14.7256" stroke="black" stroke-width="3"/>
<path d="M35.0975 35.3511L35.2586 33.8597C34.7261 33.8022 34.2033 34.033 33.887 34.4652L35.0975 35.3511ZM30.2565 31.8063L31.467 32.6922C31.7831 32.2602 31.8451 31.6925 31.6296 31.2025L30.2565 31.8063ZM27.4191 35.6834L26.2086 34.7975C25.7194 35.466 25.8647 36.4046 26.5332 36.8939L27.4191 35.6834ZM32.2609 39.2269L31.375 40.4374C31.6961 40.6724 32.0973 40.7701 32.4904 40.7093C32.8836 40.6484 33.2364 40.4339 33.4714 40.1128L32.2609 39.2269ZM39.3789 32.043C38.3961 33.3859 36.8084 34.0271 35.2586 33.8597L34.9364 36.8424C37.5074 37.1201 40.1588 36.057 41.7998 33.8148L39.3789 32.043ZM38.4052 25.754C40.4107 27.2218 40.8467 30.0375 39.3789 32.043L41.7998 33.8148C44.2461 30.4722 43.5195 25.7794 40.1769 23.3331L38.4052 25.754ZM32.1161 26.7277C33.5839 24.7222 36.3996 24.2862 38.4052 25.754L40.1769 23.3331C36.8343 20.8868 32.1415 21.6134 29.6952 24.9559L32.1161 26.7277ZM31.6296 31.2025C31.0024 29.7763 31.1338 28.07 32.1161 26.7277L29.6952 24.9559C28.055 27.1971 27.8429 30.0442 28.8834 32.4102L31.6296 31.2025ZM28.6295 36.5693L31.467 32.6922L29.0461 30.9205L26.2086 34.7975L28.6295 36.5693ZM33.1468 38.0165L28.305 34.4729L26.5332 36.8939L31.375 40.4374L33.1468 38.0165ZM33.887 34.4652L31.0504 38.3411L33.4714 40.1128L36.308 36.2369L33.887 34.4652Z" fill="black"/>
<rect x="23.1598" y="33.0316" width="17" height="5" transform="rotate(36.1988 23.1598 33.0316)" stroke="black" stroke-width="3" stroke-linejoin="round"/>
<path fill-rule="evenodd" clip-rule="evenodd" d="M24.9062 38.6468C23.4576 38.8292 22.0842 39.5845 21.1538 40.8557C19.3599 43.3069 19.8927 46.7483 22.3439 48.5423C24.7952 50.3362 28.2366 49.8034 30.0305 47.3522C30.9609 46.081 31.2654 44.5434 31.0012 43.1075L24.9062 38.6468ZM23.5747 42.6274C24.3902 41.5132 25.9544 41.2711 27.0686 42.0865C28.1828 42.9019 28.425 44.4662 27.6096 45.5804C26.7942 46.6946 25.2299 46.9368 24.1157 46.1213C23.0015 45.3059 22.7593 43.7416 23.5747 42.6274Z" fill="black"/>
</g>
<defs>
<clipPath id="clip0_631_778">
<rect width="44" height="50" fill="white"/>
</clipPath>
</defs>
</svg>
