<svg width="47" height="48" viewBox="0 0 47 48" fill="none" xmlns="http://www.w3.org/2000/svg">
<path d="M2.00195 46.1426H45.3959" stroke="black" stroke-width="3" stroke-linecap="round"/>
<path d="M11 46V41" stroke="black" stroke-width="3" stroke-linecap="round"/>
<path d="M15.2091 11.5924L16.5832 12.1941L16.9916 11.2615L16.2756 10.5376L15.2091 11.5924ZM17.5881 39.3536L18.4104 40.6082L20.4892 39.2457L18.3149 38.0414L17.5881 39.3536ZM12.0736 11.5C12.6012 11.5 13.2938 11.789 14.1427 12.6472L16.2756 10.5376C15.1508 9.40038 13.7354 8.5 12.0736 8.5V11.5ZM3.5 30.9221C3.5 28.3958 4.56234 23.3622 6.34226 18.9342C7.22737 16.7322 8.24934 14.785 9.32989 13.4161C10.4531 11.9932 11.3912 11.5 12.0736 11.5V8.5C9.97423 8.5 8.2623 9.92664 6.97511 11.5573C5.64528 13.242 4.49657 15.4821 3.55872 17.8153C1.69271 22.4575 0.5 27.8848 0.5 30.9221H3.5ZM12.0736 39.4957C7.33853 39.4957 3.5 35.6571 3.5 30.9221H0.5C0.5 37.314 5.68167 42.4957 12.0736 42.4957V39.4957ZM16.7659 38.099C15.4185 38.9821 13.8083 39.4957 12.0736 39.4957V42.4957C14.4102 42.4957 16.5892 41.8017 18.4104 40.6082L16.7659 38.099ZM18.3149 38.0414C14.8265 36.1092 12.5 32.4716 12.5 28.325H9.5C9.5 33.6323 12.4813 38.2398 16.8614 40.6657L18.3149 38.0414ZM12.5 28.325C12.5 24.8996 14.0494 17.9799 16.5832 12.1941L13.8351 10.9907C11.1941 17.0214 9.5 24.3602 9.5 28.325H12.5Z" fill="black"/>
<path d="M37.6445 46.143V38.394" stroke="black" stroke-width="3"/>
<path d="M45.3963 32.3883C45.3963 36.561 41.927 39.9435 37.6474 39.9435C33.3677 39.9435 29.8984 36.561 29.8984 32.3883C29.8984 28.2157 33.3677 16.6968 37.6474 16.6968C41.927 16.6968 45.3963 28.2157 45.3963 32.3883Z" stroke="black" stroke-width="3"/>
<path d="M35.115 18.0127L36.1938 19.055L36.8018 18.4256L36.5532 17.5866L35.115 18.0127ZM32.4298 37.9743L33.3887 39.1278L34.7308 38.0121L33.4261 36.8529L32.4298 37.9743ZM32.4381 10.8077L31.0762 11.4363L31.0762 11.4363L32.4381 10.8077ZM31.3984 32.3883C31.3984 30.9621 31.8911 28.3266 32.7919 25.6107C33.6997 22.8739 34.9185 20.3749 36.1938 19.055L34.0363 16.9705C32.2755 18.7929 30.886 21.8277 29.9445 24.6662C28.9961 27.5255 28.3984 30.5066 28.3984 32.3883H31.3984ZM33.4261 36.8529C32.1723 35.7391 31.3984 34.1484 31.3984 32.3883H28.3984C28.3984 35.0547 29.5766 37.4459 31.4335 39.0957L33.4261 36.8529ZM31.4709 36.8208C29.4636 38.4895 26.8572 39.5 24 39.5V42.5C27.5757 42.5 30.8566 41.2327 33.3887 39.1278L31.4709 36.8208ZM24 39.5C17.6127 39.5 12.5 34.4612 12.5 28.325H9.5C9.5 36.1892 16.0279 42.5 24 42.5V39.5ZM12.5 28.325C12.5 25.087 13.8865 18.707 16.1944 13.1092C17.343 10.3232 18.6781 7.83604 20.1056 6.07273C21.5721 4.26141 22.8971 3.5 24 3.5V0.5C21.5131 0.5 19.4182 2.15418 17.774 4.18503C16.091 6.26387 14.6248 9.04544 13.4208 11.9657C11.0236 17.7803 9.5 24.5628 9.5 28.325H12.5ZM24 3.5C24.9838 3.5 26.151 4.10244 27.4584 5.56038C28.7421 6.99184 29.9725 9.04519 31.0762 11.4363L33.8 10.1791C32.6329 7.65041 31.2544 5.29991 29.6919 3.55748C28.1531 1.84152 26.2366 0.5 24 0.5V3.5ZM31.0762 11.4363C32.0909 13.6346 32.9723 16.061 33.6768 18.4388L36.5532 17.5866C35.8154 15.0963 34.8857 12.5311 33.8 10.1791L31.0762 11.4363Z" fill="black"/>
<path d="M23.7001 46.1427V39.9436V34.5194V30.6449M23.7001 21.3462V24.4458V30.6449M23.7001 30.6449L19.0508 25.9955" stroke="black" stroke-width="3" stroke-linecap="round"/>
</svg>
