<svg width="48" height="43" viewBox="0 0 48 43" fill="none" xmlns="http://www.w3.org/2000/svg">
<path d="M26.64 2C37.3408 2 46 10.7218 46 21.5C46 32.2782 37.3408 41 26.64 41C15.9392 41 7.28 34.0509 7.28 23.2727V16.1818M2 21.5L7.28 16.1818M7.28 16.1818L12.56 21.5" stroke="black" stroke-width="3" stroke-miterlimit="10" stroke-linecap="round" stroke-linejoin="round"/>
<path d="M20.7051 22.9754L19.6444 24.0361L20.7051 22.9754ZM21.8635 24.1338L22.9241 25.1945C23.2054 24.9132 23.3635 24.5317 23.3635 24.1338C23.3635 23.736 23.2054 23.3545 22.9241 23.0732L21.8635 24.1338ZM21.8627 24.1346L20.802 23.074C20.2162 23.6598 20.2162 24.6095 20.802 25.1953L21.8627 24.1346ZM27.2712 29.5432L26.2105 30.6038C26.4918 30.8851 26.8734 31.0432 27.2712 31.0432C27.669 31.0432 28.0506 30.8851 28.3319 30.6038L27.2712 29.5432ZM27.272 29.5424L28.3327 28.4817C28.0514 28.2004 27.6698 28.0424 27.272 28.0424C26.8742 28.0424 26.4927 28.2004 26.2114 28.4817L27.272 29.5424ZM27.2726 29.5429L26.2119 30.6036C26.4932 30.8849 26.8748 31.0429 27.2726 31.0429C27.6704 31.0429 28.0519 30.8849 28.3332 30.6036L27.2726 29.5429ZM32.6811 24.1344L33.7418 25.1951C34.3275 24.6093 34.3275 23.6595 33.7418 23.0737L32.6811 24.1344ZM32.6805 24.1338L31.6199 23.0732C31.0341 23.659 31.0341 24.6087 31.6199 25.1945L32.6805 24.1338ZM33.8387 22.9757L32.778 21.915L33.8387 22.9757ZM33.8387 17.5671L34.8994 16.5065L34.8994 16.5065L33.8387 17.5671ZM28.4302 17.5671L27.3695 16.5065L27.3695 16.5065L28.4302 17.5671ZM27.272 18.7253L26.2114 19.786C26.4927 20.0673 26.8742 20.2253 27.272 20.2253C27.6698 20.2253 28.0514 20.0673 28.3327 19.786L27.272 18.7253ZM26.1136 17.5669L27.1743 16.5062L26.1136 17.5669ZM21.7657 21.9148C20.858 21.007 20.858 19.5353 21.7657 18.6276L19.6444 16.5062C17.5651 18.5855 17.5651 21.9568 19.6444 24.0361L21.7657 21.9148ZM22.9241 23.0732L21.7657 21.9148L19.6444 24.0361L20.8028 25.1945L22.9241 23.0732ZM22.9233 25.1953L22.9241 25.1945L20.8028 23.0732L20.802 23.074L22.9233 25.1953ZM28.3319 28.4825L22.9233 23.074L20.802 25.1953L26.2105 30.6038L28.3319 28.4825ZM26.2114 28.4817L26.2105 28.4825L28.3319 30.6038L28.3327 30.603L26.2114 28.4817ZM28.3332 28.4823L28.3327 28.4817L26.2114 30.603L26.2119 30.6036L28.3332 28.4823ZM31.6204 23.0737L26.2119 28.4823L28.3332 30.6036L33.7418 25.1951L31.6204 23.0737ZM31.6199 25.1945L31.6204 25.1951L33.7418 23.0737L33.7412 23.0732L31.6199 25.1945ZM32.778 21.915L31.6199 23.0732L33.7412 25.1945L34.8994 24.0363L32.778 21.915ZM32.778 18.6278C33.6858 19.5355 33.6858 21.0073 32.778 21.915L34.8994 24.0363C36.9787 21.957 36.9787 18.5858 34.8994 16.5065L32.778 18.6278ZM29.4908 18.6278C30.3986 17.7201 31.8703 17.7201 32.778 18.6278L34.8994 16.5065C32.82 14.4272 29.4488 14.4272 27.3695 16.5065L29.4908 18.6278ZM28.3327 19.786L29.4908 18.6278L27.3695 16.5065L26.2114 17.6646L28.3327 19.786ZM25.0529 18.6276L26.2114 19.786L28.3327 17.6646L27.1743 16.5062L25.0529 18.6276ZM21.7657 18.6276C22.6735 17.7198 24.1452 17.7198 25.0529 18.6276L27.1743 16.5062C25.095 14.4269 21.7237 14.4269 19.6444 16.5062L21.7657 18.6276Z" fill="black"/>
</svg>
