<svg width="22" height="23" viewBox="0 0 22 23" fill="none" xmlns="http://www.w3.org/2000/svg">
<path fill-rule="evenodd" clip-rule="evenodd" d="M13.3521 5.23577C15.6265 7.5637 15.6265 11.338 13.3521 13.666C11.0776 15.9939 7.38998 15.9939 5.11552 13.666C2.84105 11.338 2.84105 7.5637 5.11552 5.23577C7.38998 2.90784 11.0776 2.90784 13.3521 5.23577ZM16.7632 14.9242C19.3308 11.2336 18.9974 6.07844 15.7631 2.76809C12.1571 -0.922698 6.31054 -0.922698 2.70452 2.76809C-0.901505 6.45889 -0.901505 12.4428 2.70452 16.1336C5.85829 19.3615 10.7258 19.7664 14.3095 17.3481L18.9103 22.0571C19.5761 22.7386 20.6556 22.7386 21.3213 22.0571C21.9871 21.3757 21.9871 20.2709 21.3213 19.5895L16.7632 14.9242Z" fill="black" fill-opacity="0.32"/>
</svg>
