<svg width="1155" height="574" viewBox="0 0 1155 574" fill="none" xmlns="http://www.w3.org/2000/svg">
<path d="M222.281 349.882C223.225 351.98 223.417 354.339 222.824 356.562L221.524 361.439C221.194 362.676 220.63 363.838 219.861 364.863L203.893 386.154C203.135 387.164 201.946 387.759 200.682 387.759V387.759C198.43 387.759 196.619 389.612 196.67 391.863L197.202 415.26C197.238 416.824 196.906 418.375 196.233 419.787L184.449 444.535C183.964 445.554 183.011 446.271 181.898 446.457V446.457C180.509 446.688 179.4 447.74 179.095 449.114L178.954 449.748C178.531 451.65 176.912 453.05 174.969 453.194L162.684 454.104C160.867 454.239 159.121 454.867 157.635 455.922L143.067 466.26C140.425 468.135 138.855 471.175 138.855 474.415V483.866C138.855 485.419 138.493 486.95 137.799 488.338L135.116 493.705C134.448 495.041 133.489 496.21 132.311 497.127L127.989 500.488L116.47 512.007C114.715 513.762 113.729 516.143 113.729 518.626V518.626C113.729 520.939 112.872 523.17 111.325 524.889L108.097 528.476C107.777 528.831 107.433 529.163 107.066 529.469L103.369 532.549C100.917 534.592 97.6375 535.343 94.5414 534.569L88.6023 533.084L80.1751 530.11C78.7744 529.615 77.3571 530.805 77.6013 532.27V532.27C77.688 532.79 77.9816 533.253 78.4152 533.553L84.5195 537.78C85.6932 538.592 86.0908 540.144 85.4524 541.421V541.421C84.9002 542.525 85.1167 543.859 85.9897 544.732L86.53 545.272C87.7594 546.502 88.0345 548.393 87.2065 549.922L82.4298 558.74C80.779 561.788 77.6678 563.763 74.2074 563.961L59.6856 564.791C57.5269 564.914 55.7336 566.5 55.3468 568.627V568.627C54.9421 570.853 53.0034 572.471 50.741 572.471H11C5.47714 572.471 1 567.994 1 562.471V247.373C1 242.606 4.3646 238.502 9.03884 237.567L19.53 235.469C23.1692 234.741 26.9121 236.088 29.2523 238.969L32.2711 242.684C33.5691 244.282 35.3686 245.394 37.3778 245.84V245.84C39.3299 246.274 41.3704 246.055 43.186 245.217L45.1467 244.312C47.7351 243.118 50.7102 243.084 53.3245 244.221L62.4646 248.195C63.8209 248.785 64.5307 250.288 64.1244 251.71V251.71C63.7454 253.036 64.3367 254.448 65.5478 255.109L76.6102 261.143C77.7963 261.79 78.8075 262.715 79.5569 263.839V263.839C80.5784 265.372 82.0781 266.523 83.8223 267.114L118.142 278.738C121.322 279.815 123.75 282.417 124.604 285.664L126.018 291.036C126.414 292.542 127.325 293.861 128.592 294.766V294.766C130.344 296.018 131.385 298.04 131.385 300.194V300.362C131.385 303.09 132.97 305.568 135.446 306.713L164.099 319.956C164.922 320.337 165.793 320.603 166.688 320.749L191.976 324.866C193.657 325.139 195.241 325.838 196.576 326.895L209.108 336.816C210.245 337.716 211.579 338.334 213.002 338.618V338.618C215.905 339.199 218.35 341.147 219.565 343.847L222.281 349.882Z" stroke="black" stroke-width="2" stroke-linejoin="round"/>
<path d="M637.983 97.7886L638.696 97.234C642.102 94.5846 644.095 90.5109 644.095 86.1955V86.1955C644.095 84.1608 644.539 82.1507 645.396 80.3053L648.055 74.5803C649.463 71.5477 650.022 68.1898 649.672 64.8645L649.145 59.8597C648.956 58.0603 648.041 56.4156 646.613 55.3047V55.3047C644.309 53.5124 641.105 53.4318 638.714 55.1059L637.978 55.6208C636.655 56.5467 635.08 57.0433 633.465 57.0433H629.085C627.359 57.0433 625.673 56.5312 624.24 55.5718L622.383 54.3293C619.994 52.7309 616.807 53.0501 614.783 55.0905V55.0905C612.851 57.0384 609.844 57.428 607.479 56.0369L604.001 53.9909C601.412 52.4683 599.544 49.9696 598.816 47.0563L596.559 38.0289L595.341 33.5638C594.808 31.6078 594.887 29.5351 595.569 27.6258L596.927 23.8242C597.521 22.1616 599.095 21.0517 600.861 21.0517H605.135C606.978 21.0517 607.985 18.9029 606.806 17.4865V17.4865C605.627 16.0701 606.634 13.9213 608.477 13.9213H614.079C614.781 13.9213 615.475 14.0754 616.111 14.3726L616.996 14.7861C619.907 16.1465 623.318 15.8888 625.991 14.1063L629.42 11.8205C633.55 9.06738 638.698 8.31687 643.442 9.77647L644.774 10.1863L652.991 13.4733C656.535 14.8908 660.317 15.619 664.133 15.619H678.201C679.896 15.619 681.577 15.3069 683.16 14.6983L685.796 13.6841C688.187 12.7645 690.871 13.0222 693.044 14.3798L693.197 14.4759C694.393 15.2229 695.774 15.619 697.183 15.619V15.619C698.442 15.619 699.68 15.3033 700.784 14.7007L703.231 13.3663C705.348 12.2113 707.868 12.0506 710.115 12.9274V12.9274C711.768 13.5724 713.586 13.6619 715.295 13.1823L718.851 12.184C721.727 11.3765 724.813 12.271 726.812 14.4918V14.4918C728.588 16.4658 729.247 19.2038 728.563 21.7699L725.077 34.8432C724.518 36.9389 724.448 39.1351 724.874 41.2619V41.2619C725.749 45.6379 728.638 49.3443 732.668 51.2613L737.697 53.6534C740.642 55.0544 744.044 55.1364 747.054 53.8789V53.8789C751.326 52.0938 754.107 47.9171 754.107 43.2872V41.2858C754.107 38.6357 753.38 36.0364 752.005 33.7709L749.826 30.1798C748.665 28.2665 748.403 25.9395 749.111 23.8163L750.688 19.0866C751.082 17.9031 752.332 17.234 753.536 17.5622V17.5622C755.534 18.1073 757.21 15.9878 756.218 14.1691L755.388 12.6478C755.002 11.9404 754.355 11.4119 753.585 11.1749L751.242 10.4541C748.614 9.64545 747.516 6.52669 749.057 4.24976V4.24976C750.53 2.07383 753.643 1.83049 755.436 3.7511L762.418 11.2294C764.021 12.9465 766.265 13.9213 768.614 13.9213V13.9213C771.119 13.9213 773.495 12.8141 775.105 10.8966L776.454 9.29087C777.808 7.67932 779.703 6.61412 781.783 6.2941V6.2941C785.183 5.771 788.575 7.30663 790.422 10.2089V10.2089C791.528 11.9477 793.218 13.2355 795.188 13.8417L796.392 14.2124C799.33 15.1161 801.813 17.1038 803.337 19.772L805.978 24.3926C808.037 27.9965 810.943 31.0444 814.445 33.2729L822.695 38.5229C823.598 39.0973 824.435 39.7687 825.191 40.5252L828.817 44.1512C829.245 44.5793 829.486 45.1599 829.486 45.7653V45.7653C829.486 46.8752 830.284 47.8243 831.378 48.0144L832.367 48.1864C834.494 48.556 836.44 46.9192 836.44 44.7608V39.3056C836.44 38.5361 836.272 37.7758 835.949 37.0775V37.0775C834.657 34.2874 836.001 30.9873 838.874 29.8928L844.304 27.8241C846.581 26.9569 849.085 26.8906 851.404 27.636L864.651 31.8939C866.085 32.355 867.611 32.4552 869.094 32.1857V32.1857C872.318 31.5994 875.632 32.8062 877.749 35.3082V35.3082C880.172 38.171 880.662 42.2399 878.952 45.5775L870.944 61.2062L863.44 72.6624L859.372 79.1034C856.694 83.3434 855.122 88.1872 854.799 93.1917L854.061 104.631C853.977 105.929 853.532 107.178 852.776 108.236L851.187 110.46C849.198 113.245 850.525 117.16 853.797 118.161V118.161L859.568 119.664C864.276 120.89 869.259 120.497 873.716 118.548V118.548C878.885 116.288 884.73 116.131 890.012 118.111L907.606 124.708C911.617 126.211 915.26 128.557 918.289 131.585L922.492 135.789C924.313 137.61 926.377 139.172 928.624 140.431L935.018 144.011C939.494 146.518 944.946 146.538 949.441 144.066V144.066C953.452 141.86 958.255 141.626 962.461 143.429L965.427 144.701C970.431 146.847 974.433 150.814 976.623 155.799L983.272 170.933" stroke="black" stroke-width="2" stroke-linejoin="round"/>
<path d="M595.873 274.864C597.423 276.682 596.328 279.495 593.956 279.787L592.16 280.008L578.812 281.665C578.003 281.765 577.27 282.19 576.781 282.842L576.358 283.405C575.821 284.122 574.99 284.561 574.095 284.602L562.358 285.136C561.256 285.186 560.216 284.627 559.649 283.681L558.506 281.775C557.319 279.794 554.433 279.841 553.311 281.859L549.062 289.499C548.281 290.902 546.535 291.442 545.098 290.724L541.794 289.072C539.988 288.169 537.824 289.272 537.493 291.264L536.029 300.082C535.768 301.65 534.332 302.742 532.752 302.574L517.617 300.965L501.933 299.294C500.123 299.101 499.038 297.185 499.804 295.533V295.533C500.376 294.301 499.926 292.836 498.761 292.137L492.374 288.305C491.317 287.671 490.756 286.455 490.958 285.24L493.045 272.685C493.223 271.617 493.962 270.727 494.98 270.358L499.9 268.57C500.491 268.355 501.135 268.332 501.74 268.503L507.654 270.175C509.2 270.612 510.816 269.754 511.319 268.229L520.975 238.985C521.112 238.573 521.335 238.196 521.632 237.878L522.041 237.44C523.395 235.99 525.757 236.23 526.793 237.922L529.983 243.136C531.02 244.83 530.154 247.046 528.243 247.588L526.591 248.056C524.608 248.619 523.77 250.968 524.949 252.659L531.074 261.439C531.678 262.304 532.692 262.789 533.745 262.715L548.951 261.645C550.523 261.535 551.741 260.228 551.741 258.653V256.537C551.741 255.511 552.266 254.555 553.132 254.005L565.052 246.433C565.664 246.044 566.115 245.447 566.321 244.751L566.845 242.977C567.74 239.947 572.107 240.181 572.673 243.29L574.748 254.688C575.008 256.114 576.25 257.15 577.7 257.15H582.053C583.493 257.15 584.73 258.173 585 259.587L585.472 262.055C585.569 262.566 585.798 263.042 586.135 263.438L595.873 274.864Z" fill="#FF7171" stroke="black" stroke-width="2" stroke-linejoin="round"/>
<path d="M665.144 192.856C665.461 194.125 664.92 195.452 663.807 196.138L655.029 201.544C654.142 202.09 653.602 203.057 653.602 204.098V223.191C653.602 223.783 653.427 224.362 653.098 224.855L640.054 244.424V244.424C639.101 245.853 636.885 245.336 636.663 243.632L635.738 236.536C635.493 234.665 633.604 233.481 631.814 234.078L630.556 234.497C629.673 234.792 628.976 235.48 628.671 236.36L625.495 245.516C624.911 247.2 622.995 248.006 621.383 247.247L618.961 246.106C617.758 245.54 616.325 245.833 615.441 246.828L612.177 250.5C611.737 250.994 611.146 251.33 610.496 251.453L598.399 253.758C597.653 253.9 596.88 253.753 596.238 253.348L590.123 249.492C588.327 248.359 585.955 249.399 585.572 251.488L584.983 254.692C584.722 256.116 583.481 257.15 582.033 257.15H577.615C576.202 257.15 574.981 256.165 574.683 254.785L570.306 234.567C570.306 234.565 570.305 234.563 570.305 234.56V234.56C570.305 234.558 570.305 234.556 570.305 234.554L568.211 224.903C568.097 224.377 568.127 223.829 568.297 223.318L572.222 211.543C572.572 210.493 573.472 209.722 574.562 209.535L579.858 208.628C581.299 208.382 582.352 207.133 582.352 205.671V179.47C582.352 178.399 583.286 177.566 584.35 177.689V177.689C585.423 177.812 586.361 176.966 586.348 175.885L586.253 168.055C586.233 166.384 587.582 165.018 589.253 165.018H624.401L633.028 165.635C633.603 165.676 634.154 165.881 634.615 166.227L634.7 166.291C635.825 167.134 637.385 167.084 638.452 166.169L641.129 163.874C641.295 163.732 641.445 163.572 641.576 163.397L645.512 158.149C646.573 156.734 648.622 156.539 649.93 157.729L654.079 161.5C654.645 162.015 654.993 162.727 655.052 163.49L656.233 178.852C656.288 179.566 656.597 180.237 657.103 180.743L663.201 186.84C663.585 187.225 663.858 187.707 663.99 188.235L665.144 192.856Z" fill="#FF7171" stroke="black" stroke-width="2" stroke-linejoin="round"/>
<path d="M734.811 234.286C736.468 234.286 737.811 235.629 737.811 237.286V245.214C737.811 245.621 737.729 246.023 737.569 246.396L723.779 278.572C723.628 278.924 723.411 279.244 723.14 279.515L699.708 302.873L686.092 320.482C684.613 322.395 681.594 321.861 680.86 319.557L680.23 317.578C680.137 317.284 680.089 316.977 680.089 316.668V299.188C680.089 298.93 680.122 298.673 680.188 298.423L681.894 291.952C682.248 290.608 681.234 289.292 679.844 289.292V289.292C679.185 289.292 678.563 288.985 678.162 288.463L678.104 288.387C677.357 287.415 675.983 287.193 674.969 287.88L671.412 290.29C670.915 290.626 670.329 290.806 669.729 290.806H663.869C663.211 290.806 662.57 290.589 662.047 290.189L655.957 285.533C655.748 285.373 655.518 285.241 655.275 285.141L650.71 283.265C649.585 282.803 648.851 281.707 648.851 280.49V278.078C648.851 277.115 648.389 276.211 647.609 275.647L643.302 272.534C642.522 271.969 642.06 271.065 642.06 270.102V268.333C642.06 267.057 641.253 265.921 640.049 265.501L637.129 264.482C634.991 263.735 634.419 260.98 636.084 259.445L637.753 257.904C638.28 257.418 638.615 256.759 638.698 256.047L639.973 245.14C640.028 244.67 640.194 244.219 640.456 243.825L653.101 224.855C653.429 224.362 653.604 223.783 653.604 223.191V204.099C653.604 203.057 654.145 202.09 655.031 201.544L662.189 197.136C663.917 196.072 666.181 196.994 666.673 198.962L669.006 208.29C669.148 208.857 669.452 209.371 669.882 209.767L685.787 224.449C686.476 225.084 686.828 226.005 686.739 226.938L685.924 235.494C685.728 237.556 687.629 239.191 689.638 238.689L693.026 237.842C693.451 237.736 693.893 237.724 694.323 237.807L712.971 241.417C713.879 241.592 714.722 240.897 714.722 239.972V239.972C714.722 239.106 715.465 238.428 716.327 238.506L721.332 238.961C721.894 239.012 722.459 238.904 722.962 238.648L730.91 234.611C731.331 234.397 731.796 234.286 732.268 234.286H734.811Z" fill="#FF7171" stroke="black" stroke-width="2" stroke-linejoin="round"/>
<path d="M680.088 317.134L682.593 325.005L673.976 336.149L670.648 343.082L638.181 319.85V312.17L645.454 300.836L637.801 287.254L644.775 281.822L648.85 282.501L655.64 285.292L662.852 290.806H670.648L676.774 286.657L678.797 289.291H682.593L680.088 298.799V317.134Z" fill="#FFB9B9" stroke="black" stroke-width="2" stroke-linejoin="round"/>
<path d="M675.259 377.487C672.856 376.723 671.188 374.539 671.083 372.02L670.652 361.67C670.604 360.525 670.23 359.417 669.573 358.479L667.837 356C666.594 354.224 666.406 351.916 667.344 349.962L670.647 343.082L638.18 319.85L614.67 323.003C613.488 323.161 612.38 323.669 611.489 324.461L609.955 325.824C608.213 327.373 608.134 330.068 609.782 331.716V331.716C610.452 332.386 610.866 333.27 610.952 334.213L612.44 350.581C612.716 353.618 613.453 356.595 614.627 359.409L618.289 368.194L637.202 378.252L645.453 388.295L655.639 397.266L654.276 403.264C653.633 406.092 649.751 406.453 648.598 403.792L645.453 396.533L636.95 394.55L616.856 402.509L600.633 416.281L588.341 416.593L594.521 426.467L602.131 432.906C602.929 433.582 603.537 434.454 603.894 435.436L604.899 438.198C605.599 440.124 607.43 441.407 609.48 441.407H610.246C611.343 441.407 612.372 441.938 613.008 442.831V442.831C614.062 444.312 613.76 446.361 612.323 447.475L600.821 456.397C599.978 457.051 599.485 458.057 599.485 459.124V459.124C599.485 461.029 597.932 462.574 596.026 462.574V462.574C593.965 462.574 592.349 464.361 592.568 466.411L592.58 466.52C592.854 469.084 590.402 471.082 587.947 470.297L576.186 466.533L574.148 474.003L584.335 484.189H588.341V495.401H597.434L599.472 499.516L608.429 488.549L615.41 492.671L612.856 501.167L621.277 502.728L627.796 493.018L635.266 490.98L637.983 474.682L635.945 471.287L648.653 463.874C650.813 462.614 651.965 460.147 651.544 457.682L647.96 436.69C647.662 434.945 648.15 433.157 649.294 431.805L661.428 417.465C662.085 416.688 662.929 416.091 663.88 415.73L679.46 409.821C681.145 409.182 682.454 407.818 683.024 406.108L685.89 397.511C686.094 396.899 686.198 396.258 686.198 395.613V385.355C686.198 382.743 684.507 380.43 682.017 379.638L675.259 377.487ZM631.409 480.556H626.438L621.99 476.563L626.438 470.608H631.409V480.556Z" fill="#FFB9B9" stroke="black" stroke-width="2" stroke-linejoin="round"/>
<path d="M608.783 521.342L596.121 528.758C595.079 529.368 593.878 529.65 592.674 529.567L575.927 528.406C575.201 528.355 574.471 528.438 573.775 528.648L558.939 533.136C557.002 533.722 554.9 533.291 553.348 531.992L544.183 524.312C542.344 522.77 542.072 520.042 543.571 518.167V518.167C545.257 516.06 545.655 513.199 544.608 510.712L535.441 488.943L539.176 484.223L540.642 486.808C541.885 489 544.211 490.355 546.731 490.355H548.834C552.7 490.355 555.834 487.221 555.834 483.355V464L562.605 477.704L574.149 474.003L584.336 484.189H588.342V495.401H597.435L599.486 499.516L602.671 505.92L608.783 521.342Z" fill="#FF9781" stroke="black" stroke-width="2" stroke-linejoin="round"/>
<path d="M621.28 502.728L608.785 521.342L602.673 505.92L599.488 499.516L608.445 488.548L615.426 492.671L612.86 501.166L621.28 502.728Z" fill="#C2C2C2" stroke="black" stroke-width="2" stroke-linejoin="round"/>
<path d="M562.606 442.765L555.835 445.794V487.356C555.835 489.013 554.492 490.356 552.835 490.356H545.753C543.838 490.356 542.07 489.326 541.126 487.66V487.66C540.195 486.018 537.897 485.841 536.726 487.321L535.442 488.943L529.412 474.73C527.099 469.277 525.279 463.627 523.974 457.848L523.603 456.206C521.995 449.085 519.487 442.199 516.139 435.712L515.615 434.698C512.102 427.889 509.607 420.602 508.211 413.069V413.069H516.469L546.423 414.719L555.835 420.111H561.044L562.355 439.146L562.606 442.765Z" fill="#FFB9B9" stroke="black" stroke-width="2" stroke-linejoin="round"/>
<path d="M588.344 416.593L564.767 420.111H555.837L546.424 414.719L516.47 413.069H508.212V413.069C507.38 408.57 508.195 403.922 510.509 399.976L515.225 391.93C517.29 388.408 517.772 384.18 516.555 380.284L515.678 377.479C515.285 376.219 515.323 374.864 515.786 373.629V373.629C516.631 371.375 516.527 368.875 515.496 366.699L512.242 359.83C511.434 358.124 511.211 356.2 511.608 354.355V354.355H536.72L542.914 367.386H551.545L554.431 360.874H560.013L559.891 364.67L568.719 363.312V379.359L582.694 378.225L582.98 387.08L568.04 385.172L570.308 409.605L588.344 416.593Z" fill="#FFB9B9" stroke="black" stroke-width="2" stroke-linejoin="round"/>
<path d="M525.256 328.679L511.606 326.648L504.476 338.675L497.252 331.06C491.61 325.113 490.169 316.325 493.615 308.888L498.242 298.901L517.616 300.965V306.194H522.54V314.153L525.256 328.679Z" stroke="black" stroke-width="2" stroke-linejoin="round"/>
<path d="M545.731 291.041C546.886 291.618 547.541 292.87 547.359 294.148L544.38 315C544.307 315.508 544.105 315.99 543.793 316.398L535.875 326.753C535.59 327.126 535.396 327.561 535.309 328.022L533.605 337.113C533.475 337.806 533.105 338.431 532.56 338.878L527.301 343.196C526.308 344.012 524.856 343.935 523.954 343.019V343.019C523.129 342.181 521.83 342.036 520.841 342.672L515.12 346.35C513.908 347.129 512.313 346.936 511.322 345.891L506.035 340.319C505.112 339.346 504.947 337.878 505.631 336.724L510.577 328.382C511.199 327.333 512.393 326.765 513.599 326.944L521.091 328.059C523.129 328.362 524.86 326.566 524.481 324.54L522.589 314.426C522.555 314.244 522.538 314.059 522.538 313.874V308.655C522.538 307.296 521.436 306.194 520.077 306.194V306.194C518.717 306.194 517.615 305.085 517.615 303.725V303.725C517.615 302.254 518.89 301.1 520.353 301.256L532.75 302.574C534.33 302.742 535.766 301.649 536.027 300.082L537.491 291.263C537.822 289.271 539.987 288.169 541.793 289.072L545.731 291.041Z" stroke="black" stroke-width="2" stroke-linejoin="round"/>
<path d="M643.681 297.689C644.771 299.625 644.703 302.005 643.503 303.875L639.131 310.689C638.51 311.656 638.181 312.78 638.181 313.929V314.601C638.181 317.607 635.957 320.148 632.978 320.548L614.671 323.003C613.489 323.161 612.381 323.669 611.49 324.461L609.956 325.824C608.214 327.373 608.135 330.068 609.783 331.716V331.716C610.453 332.386 610.867 333.27 610.953 334.213L612.775 354.252C612.829 354.856 612.976 355.448 613.208 356.008L615.997 362.732C617.226 365.695 615.707 369.083 612.677 370.136V370.136C611.475 370.554 610.453 371.37 609.778 372.448L609.022 373.658C608.017 375.267 606.311 376.305 604.42 376.459L582.692 378.225L568.717 379.359V367.705C568.717 365.395 566.658 363.629 564.375 363.98L561.909 364.359C560.859 364.521 559.92 363.689 559.954 362.626V362.626C559.985 361.668 559.217 360.874 558.257 360.874H556.586C555.275 360.874 554.086 361.647 553.555 362.846L552.986 364.13C552.108 366.11 550.146 367.386 547.981 367.386H546.703C544.387 367.386 542.278 366.053 541.284 363.962L538.346 357.779C537.352 355.687 535.242 354.355 532.926 354.355H511.605L512.509 350.134C512.843 348.571 513.787 347.207 515.132 346.343L520.841 342.672C521.83 342.037 523.13 342.181 523.955 343.019V343.019C524.856 343.935 526.308 344.012 527.301 343.196L531.717 339.571C532.807 338.676 533.547 337.426 533.807 336.04L535.178 328.724C535.351 327.801 535.739 326.931 536.309 326.185L543.318 317.021C543.942 316.204 544.346 315.242 544.491 314.224L547.508 293.106C547.612 292.38 547.848 291.679 548.204 291.038L553.31 281.859C554.432 279.841 557.318 279.794 558.505 281.775L558.727 282.145C559.861 284.037 561.942 285.154 564.146 285.054L573.723 284.619C574.853 284.567 575.901 284.013 576.579 283.109V283.109C577.196 282.286 578.121 281.75 579.142 281.623L590.504 280.213C591.587 280.079 592.686 280.243 593.682 280.686L603.66 285.127C604.784 285.627 606.035 285.77 607.244 285.535L613.29 284.361C615.469 283.938 617.697 284.806 619.015 286.592V286.592C620.246 288.26 622.278 289.137 624.336 288.887L633.819 287.737C636.229 287.445 638.577 288.633 639.769 290.748L643.681 297.689Z" fill="#FF7171" stroke="black" stroke-width="2" stroke-linejoin="round"/>
<path d="M465.387 184.365L462.1 210.517L444.443 214.592H432.688L419.317 224.778L411.168 225.871L407.773 239.718L410.007 242.971L390.544 240.302L386.042 230.89L360.916 233.932V228.852L340.353 227.657L342.58 222.741L340.854 219.575C339.373 216.86 339.231 213.612 340.471 210.779L343.993 202.728H352.058C355.11 202.728 357.995 204.121 359.891 206.512L368.454 217.301L371.102 214.143L375.856 208.48L382.647 209.159H407.094V204.405L400.303 145.325L411.168 143.966L447.853 170.933L454.63 179.279L461.421 179.958V185.078L465.387 184.365Z" stroke="black" stroke-width="2" stroke-linejoin="round"/>
<path d="M425.328 259.5L423.508 268.552L422.713 279.105L400.487 283.309L389.805 270.956V262.834L393.513 261.979V246.509L390.545 240.302L410.008 242.971L415.243 250.584H421.695L425.328 259.5Z" stroke="black" stroke-width="2" stroke-linejoin="round"/>
<path d="M393.512 246.509V261.979L389.804 262.835L384.004 264.166L373.268 247.528H365.024L363.306 257.151L358.199 247.868L350.07 240.201L360.915 236.961V233.933L386.042 230.89L390.544 240.303L393.512 246.509Z" stroke="black" stroke-width="2" stroke-linejoin="round"/>
<path d="M400.487 283.309L397.587 283.859L386.042 280.463L365.67 261.449L363.307 257.15L365.025 247.528H373.269L384.005 264.165L389.805 262.834V270.956L400.487 283.309Z" stroke="black" stroke-width="2" stroke-linejoin="round"/>
<path d="M360.916 228.853V236.961L350.071 240.2L343.796 234.285L338.506 231.739L340.353 227.657L360.916 228.853Z" stroke="black" stroke-width="2" stroke-linejoin="round"/>
<path d="M447.159 270.956L429.618 283.859L422.712 279.105L423.507 268.552L425.326 259.5L421.693 250.583H425.326V241.226L440.368 241.755L445.108 262.141L447.159 270.956Z" stroke="black" stroke-width="2" stroke-linejoin="round"/>
<path d="M453.951 237.389L446.481 242.434L450.556 253.979L445.11 262.141L440.37 241.755L425.328 241.225V250.583H415.243L410.008 242.971L407.773 239.718L411.169 225.871L419.318 224.778L432.689 214.592H440.913L445.123 224.099L455.31 230.211L453.951 237.389Z" fill="#FF7171" stroke="black" stroke-width="2" stroke-linejoin="round"/>
<path d="M533.406 175.204V200.303L522.54 210.517V226.272L517.977 222.516L511.403 227.657L503.526 226.136H497.414L494.019 229.531L483.805 222.516L481.116 226.136L472.967 222.516L465.388 224.948L460.743 237.001L462.448 241.667L453.953 260.769L455.881 271.601L447.162 270.956L445.111 262.141L450.557 253.979L446.483 242.434L453.953 237.388L455.311 230.21L445.124 224.099L440.914 214.591H444.445L462.102 210.517L465.388 184.365L474.834 182.674L508.748 154.241L525.936 160.264L529.297 157.745V171.619L533.406 175.204Z" fill="#FF7171" stroke="black" stroke-width="2" stroke-linejoin="round"/>
<path d="M525.688 228.861C527.025 229.96 527.156 231.96 525.975 233.225L524.732 234.557L521.63 237.878C521.334 238.195 521.11 238.573 520.974 238.985L511.318 268.228C510.814 269.754 509.199 270.611 507.653 270.175L501.739 268.503C501.134 268.332 500.49 268.355 499.899 268.57L494.979 270.357C493.961 270.727 493.222 271.617 493.044 272.685L491.134 284.177C490.854 285.856 489.234 286.967 487.567 286.623L475.303 284.088C474.589 283.94 473.953 283.537 473.514 282.955L466.314 273.4C465.794 272.71 465.002 272.277 464.14 272.214L458.203 271.773C456.836 271.672 455.712 270.657 455.471 269.307L454.112 261.675C454.007 261.085 454.081 260.477 454.325 259.93L461.953 242.776C462.27 242.064 462.297 241.258 462.03 240.527L461.128 238.059C460.879 237.377 460.886 236.628 461.147 235.951L464.871 226.287C465.197 225.44 465.89 224.787 466.754 224.509L471.877 222.866C472.578 222.641 473.338 222.682 474.011 222.981L479.245 225.306C480.338 225.791 481.622 225.454 482.335 224.494V224.494C483.155 223.39 484.701 223.133 485.834 223.911L491.961 228.119C493.153 228.938 494.759 228.79 495.781 227.768L496.534 227.015C497.097 226.452 497.86 226.136 498.655 226.136H503.238C503.428 226.136 503.619 226.154 503.806 226.191L510.061 227.398C510.913 227.563 511.794 227.35 512.478 226.816L516.08 223.999C517.187 223.133 518.748 223.152 519.834 224.046L522.539 226.272L525.688 228.861Z" fill="#FF7171" stroke="black" stroke-width="2" stroke-linejoin="round"/>
<path d="M498.68 145.983C499.786 147.1 501.165 147.909 502.68 148.327L508.747 150.004V154.241L474.834 182.675L465.388 184.366L461.422 185.079V179.958L454.631 179.279L447.854 170.933L411.169 143.967L400.304 145.325L407.095 204.406V209.159H382.648L375.857 208.48L371.103 214.144L368.455 217.301L356.89 202.728H343.994V202.728C346.583 196.811 346.902 190.148 344.889 184.01L342.228 175.897L341.902 170.933L363.633 172.359V159.586L371.782 156.869L369.745 137.855L388.759 135.818L387.849 126.127L387.333 120.613L386.722 114.087L405.737 111.371L419.997 99.8261L422.714 92.3562L435.616 89.6398L429.505 67.2299L441.728 60.7786L449.758 56.5407C452.495 55.0961 455.592 54.4764 458.675 54.7566L464.954 55.3275C467.502 55.5591 470.053 54.9114 472.182 53.4922V53.4922C474.022 52.2655 476.184 51.6109 478.395 51.6109H491.672C491.877 51.6109 492.08 51.5796 492.275 51.5181L500.78 48.8322C502.402 48.3199 503.883 49.9383 503.228 51.5086L501.889 54.7225C501.638 55.3259 501.697 56.014 502.048 56.5655L506.242 63.1554L498.772 74.0208L508.747 85.4634L500.885 93.5334C499.499 94.9557 498.724 96.8628 498.724 98.8485V100.854C498.724 102.402 497.88 103.826 496.522 104.568V104.568C495.009 105.396 494.149 107.059 494.348 108.773L496.883 130.521C497.074 132.158 496.577 133.801 495.51 135.058V135.058C493.513 137.409 493.646 140.896 495.815 143.088L498.68 145.983Z" stroke="black" stroke-width="2" stroke-linejoin="round"/>
<path d="M586.325 173.875C586.351 176.022 584.487 177.705 582.353 177.46V177.46L580.368 177.231C579.226 177.1 578.225 177.992 578.225 179.142V179.142C578.225 180.666 576.537 181.585 575.257 180.758L539.111 157.402C536.09 155.45 532.173 155.587 529.296 157.746V157.746V157.746C527.196 159.32 524.448 159.744 521.97 158.876L508.747 154.242V150.004L500.367 147.688L495.815 143.088C493.646 140.896 493.513 137.409 495.509 135.058V135.058C496.576 133.801 497.074 132.158 496.883 130.521L494.348 108.773C494.148 107.06 495.008 105.396 496.522 104.569V104.569C497.879 103.826 498.724 102.402 498.724 100.855V98.8487C498.724 96.863 499.499 94.9559 500.885 93.5336L508.747 85.4636H523.429C525.055 85.4636 526.58 86.2548 527.517 87.5846L532.838 95.14C533.124 95.5456 533.468 95.9064 533.86 96.2107L544.764 104.675C546.256 105.832 548.273 106.051 549.978 105.24L552.983 103.811C554.725 102.982 555.835 101.225 555.835 99.2958V93.7296C555.835 91.8958 556.839 90.2091 558.451 89.3347L563.405 86.647C564.78 85.9015 566.424 85.8418 567.848 86.4856L573.846 89.1957C574.494 89.4885 575.197 89.6398 575.908 89.6393L579.53 89.6367C582.293 89.6348 584.533 91.8739 584.533 94.6367V101.157L586.217 165.019L586.325 173.875Z" stroke="black" stroke-width="2" stroke-linejoin="round"/>
<path d="M631.978 143.726C632.35 144.32 632.502 145.026 632.407 145.721L630.666 158.486C630.569 159.196 630.222 159.847 629.687 160.323L624.404 165.018H586.219L584.535 101.157L587.883 95.7515L608.446 99.1062L618.265 95.7515L622.523 106.563L621.764 110.932C621.714 111.223 621.62 111.505 621.488 111.768L618.961 116.782C618.524 117.648 618.533 118.671 618.984 119.528L625.138 131.233C625.535 131.99 626.237 132.541 627.065 132.748L627.933 132.965C629.672 133.399 630.644 135.251 630.015 136.929L629.678 137.826C629.35 138.7 629.448 139.677 629.943 140.469L631.978 143.726Z" stroke="black" stroke-width="2" stroke-linejoin="round"/>
<path d="M435.616 89.64L422.714 92.3564L419.997 99.8263L405.737 111.371L386.722 114.087L387.333 120.613L387.849 126.127L388.759 135.818L369.745 137.855L371.782 156.87L363.633 159.586V172.36L341.902 170.934V165.019L355.32 144.95C355.87 144.128 356.163 143.16 356.163 142.171V136.026C356.163 134.598 356.774 133.238 357.841 132.289L361.252 129.257C361.922 128.662 362.419 127.898 362.692 127.044L364.422 121.638C365.085 119.567 367.01 118.162 369.184 118.162H370.784C372.062 118.162 373.291 117.672 374.219 116.794L382.748 108.729C384.147 107.405 384.662 105.396 384.071 103.562L383.091 100.522C382.801 99.6239 382.772 98.6621 383.006 97.7478L385.754 87.017C386.013 86.0068 386.581 85.1027 387.379 84.4313L397.916 75.5664C398.59 74.999 399.103 74.2633 399.402 73.4339L402.511 64.796C403.663 61.5966 407.812 60.7831 410.086 63.3106V63.3106C410.786 64.0883 411.736 64.5977 412.771 64.751L429.505 67.2301L435.616 89.64Z" stroke="black" stroke-width="2" stroke-linejoin="round"/>
<path d="M341.902 170.933V174.899L342.228 175.897" stroke="black" stroke-width="2" stroke-linejoin="round"/>
<path d="M580.525 177.249C581.567 177.369 582.353 178.251 582.353 179.3V205.671C582.353 207.133 581.3 208.382 579.859 208.628L574.563 209.535C573.472 209.721 572.573 210.493 572.223 211.543L568.298 223.318C568.128 223.829 568.098 224.377 568.212 224.903L570.306 234.554C570.306 234.556 570.306 234.558 570.306 234.559V234.559C570.306 234.562 570.306 234.565 570.305 234.568L566.355 244.901C566.125 245.504 565.706 246.017 565.162 246.363L553.131 254.005C552.265 254.555 551.74 255.511 551.74 256.537V258.652C551.74 260.227 550.522 261.534 548.95 261.645L533.744 262.715C532.691 262.789 531.677 262.304 531.073 261.438L524.948 252.658C523.769 250.968 524.607 248.618 526.59 248.056L528.242 247.588C530.153 247.046 531.019 244.83 529.982 243.136L525.823 236.339C525.179 235.286 525.316 233.932 526.158 233.029V233.029C527.24 231.87 527.119 230.038 525.895 229.031L523.634 227.172C522.941 226.602 522.539 225.752 522.539 224.855V211.814C522.539 210.987 522.881 210.196 523.484 209.629L532.459 201.192C533.062 200.625 533.404 199.834 533.404 199.006V176.568C533.404 175.702 533.03 174.878 532.377 174.308L530.323 172.516C529.671 171.946 529.296 171.122 529.296 170.255V159.245C529.296 158.301 529.74 157.412 530.495 156.845L532.411 155.408C533.416 154.654 534.784 154.606 535.84 155.288L575.257 180.757C576.537 181.584 578.224 180.665 578.224 179.141V179.141C578.224 177.992 579.226 177.099 580.368 177.231L580.525 177.249Z" fill="#FF7171" stroke="black" stroke-width="2" stroke-linejoin="round"/>
<path d="M387.4 120.878L411.168 143.967" stroke="black" stroke-width="2" stroke-linejoin="round"/>
<path d="M390.545 240.302L389.805 240.2" stroke="black" stroke-width="2" stroke-linejoin="round"/>
<path d="M411.169 243.127L410.008 242.971" stroke="black" stroke-width="2" stroke-linejoin="round"/>
<path d="M375.713 230.89L371.102 222.062V214.144" stroke="black" stroke-width="2" stroke-linejoin="round"/>
<path d="M647.607 275.647C648.388 276.211 648.85 277.115 648.85 278.078V279.489C648.85 281.065 647.434 282.265 645.879 282.005V282.005C645.175 281.888 644.455 282.071 643.892 282.509L638.457 286.743C638.028 287.077 637.515 287.289 636.975 287.354L622.744 289.081C621.67 289.211 620.61 288.754 619.968 287.884L617.983 285.194C617.296 284.262 616.134 283.809 614.997 284.03L606.316 285.716C605.712 285.833 605.086 285.762 604.524 285.512L596.61 281.989C595.358 281.432 595.634 279.58 596.994 279.412V279.412C598.063 279.281 598.556 278.013 597.858 277.194L586.134 263.438C585.797 263.042 585.568 262.566 585.471 262.055L584.639 257.702C584.569 257.337 584.568 256.963 584.635 256.597L585.573 251.488C585.956 249.399 588.328 248.359 590.124 249.492L596.239 253.348C596.882 253.753 597.654 253.9 598.4 253.758L610.497 251.453C611.147 251.33 611.738 250.994 612.178 250.5L615.442 246.828C616.326 245.833 617.759 245.54 618.962 246.107L621.384 247.247C622.996 248.006 624.912 247.2 625.496 245.516L628.672 236.36C628.977 235.48 629.674 234.792 630.558 234.497L631.815 234.078C633.605 233.481 635.495 234.665 635.739 236.536L637.055 246.627C637.142 247.292 638.007 247.494 638.379 246.936V246.936C638.803 246.301 639.793 246.666 639.705 247.424L638.69 256.11C638.611 256.781 638.295 257.402 637.798 257.861L636.082 259.444C634.418 260.98 634.99 263.735 637.128 264.481L640.047 265.5C641.252 265.921 642.059 267.057 642.059 268.333V270.102C642.059 271.065 642.521 271.969 643.301 272.533L647.607 275.647Z" fill="#FF7171" stroke="black" stroke-width="2" stroke-linejoin="round"/>
<path d="M655.641 397.267L654.278 403.264C653.636 406.092 649.753 406.453 648.6 403.792L645.455 396.533L636.953 394.543L616.859 402.502L600.635 416.281L588.344 416.593L570.307 409.606L568.039 385.172L582.979 387.08L582.694 378.225L607.426 376.215L610.822 370.782L618.264 368.195L637.204 378.225L645.455 388.296L655.641 397.267Z" fill="#FF9781" stroke="black" stroke-width="2" stroke-linejoin="round"/>
<path d="M613.225 443.136C614.158 444.447 613.891 446.26 612.62 447.246L600.647 456.533C599.915 457.101 599.486 457.976 599.486 458.903V459.574C599.486 461.231 598.143 462.574 596.486 462.574H595.497C593.714 462.574 592.324 464.121 592.514 465.894L592.674 467.386C592.904 469.542 590.842 471.223 588.776 470.562L576.187 466.533L588.093 454.031C589.07 453.006 589.197 451.437 588.397 450.268L580.94 439.37L562.354 439.146L561.043 420.111H564.764L588.342 416.593L594.522 426.467L603.35 433.937L605.348 439.432C605.779 440.618 606.906 441.407 608.168 441.407H610.448C611.418 441.407 612.329 441.877 612.892 442.668L613.225 443.136Z" fill="#FF9781" stroke="black" stroke-width="2" stroke-linejoin="round"/>
<path d="M589.768 452.272L576.186 466.533L574.149 474.003L562.604 477.704L555.834 464V445.794L562.604 442.765L562.353 439.146L580.94 439.37L589.768 452.272Z" fill="#989389" stroke="black" stroke-width="2" stroke-linejoin="round"/>
<path d="M631.413 470.608V480.557H626.442L621.994 476.564L626.442 470.608H631.413Z" fill="#EBFF00" stroke="black" stroke-width="2" stroke-linejoin="round"/>
<path d="M737.976 393.64C736.812 389.619 731.518 388.723 729.096 392.137L721.649 402.63C720.711 403.951 719.191 404.736 717.571 404.736H713.216C710.454 404.736 708.216 406.975 708.216 409.736V420.083V429.902C708.216 430.987 707.863 432.042 707.21 432.909L699.507 443.14C698.418 444.586 698.196 446.507 698.925 448.163L705.676 463.491C705.825 463.829 706.011 464.15 706.23 464.447L709.032 468.239C709.975 469.515 711.467 470.268 713.054 470.268H716.699C719.049 470.268 721.082 468.631 721.584 466.335L727.486 439.324C727.577 438.903 727.723 438.496 727.919 438.113L741.661 411.254C742.241 410.121 742.367 408.809 742.013 407.586L737.976 393.64Z" stroke="black" stroke-width="2" stroke-linejoin="round"/>
<path d="M647.492 155.511L641.38 163.66L636.626 167.735L633.91 165.697L624.403 165.018L629.685 160.323C630.22 159.847 630.568 159.196 630.664 158.486L632.405 145.721C632.5 145.026 632.348 144.32 631.977 143.726L629.941 140.469C629.446 139.677 629.349 138.7 629.676 137.826L630.013 136.929C630.642 135.251 629.67 133.399 627.931 132.965L627.064 132.748C626.235 132.541 625.533 131.99 625.136 131.233L618.982 119.528C618.531 118.671 618.523 117.648 618.959 116.782L621.686 111.37L622.522 106.563L624.068 97.6763C624.254 96.606 625.26 95.8801 626.335 96.0413L637.984 97.7887L644.069 107.927L640.413 114.005C639.828 114.977 638.553 115.269 637.604 114.648L635.612 113.345C633.996 112.289 631.968 113.909 632.644 115.719L647.492 155.511Z" stroke="black" stroke-width="2" stroke-linejoin="round"/>
<path d="M644.098 107.975L644.07 107.928" stroke="black" stroke-width="2" stroke-linejoin="round"/>
<path d="M963.095 143.702L987.56 140.114C988.559 139.967 989.527 139.653 990.423 139.185L1013.95 126.887C1017.01 125.289 1020.71 125.579 1023.48 127.635L1035.29 136.394C1038.15 138.52 1039.49 142.138 1038.7 145.617L1037.67 150.133C1037.01 153.069 1037.85 156.144 1039.93 158.326L1045.93 164.642C1048.14 166.976 1051.44 167.948 1054.57 167.191L1063.55 165.019L1077.32 163.56C1080.68 163.205 1083.55 161.004 1084.77 157.859L1089.33 146.073C1090.34 143.461 1092.51 141.469 1095.2 140.683L1132.75 129.706C1134.27 129.261 1135.89 129.227 1137.43 129.606L1145.27 131.536C1149.03 132.462 1151.78 135.697 1152.09 139.563L1153.1 152.285C1153.3 154.776 1152.45 157.237 1150.76 159.078L1148.61 161.421C1146.91 163.281 1144.5 164.34 1141.98 164.34H1125.51C1121.47 164.34 1117.92 167.032 1116.84 170.924L1115.03 177.415C1114.81 178.202 1114.7 179.014 1114.7 179.83V180.084C1114.7 182.561 1113.68 184.929 1111.88 186.629L1108.09 190.206C1105.88 192.288 1102.33 191.846 1100.7 189.286V189.286C1099.71 187.733 1099.69 185.753 1100.65 184.181L1102.59 180.98C1105.22 176.662 1102.11 171.13 1097.06 171.13V171.13C1094.92 171.13 1092.93 172.181 1091.72 173.939L1086.68 181.264C1086.35 181.749 1085.94 182.18 1085.48 182.541V182.541C1082.66 184.734 1082.51 188.944 1085.17 191.331L1086.56 192.586C1087.74 193.646 1088.54 195.061 1088.85 196.617L1088.93 197.022C1089.34 199.148 1090.55 201.037 1092.31 202.305L1098.64 206.876C1100.65 208.333 1101.98 210.56 1102.29 213.028L1104.4 229.422C1104.88 233.16 1102.97 236.802 1099.63 238.545L1092.53 242.251C1090.62 243.246 1089.14 244.891 1088.34 246.888L1087.68 248.523C1087.16 249.842 1086.12 250.898 1084.82 251.458L1084.54 251.579C1081.13 253.037 1077.35 250.542 1077.35 246.842V246.842C1077.35 244.627 1075.94 242.659 1073.84 241.955L1069.52 240.508C1067.98 239.991 1066.61 239.066 1065.55 237.832L1060.27 231.673C1059.47 230.745 1058.31 230.211 1057.09 230.211H1055.36C1054.01 230.211 1052.9 229.11 1052.9 227.751V227.751C1052.9 226.337 1051.71 225.213 1050.3 225.295L1050.03 225.31C1048.59 225.393 1047.47 226.582 1047.47 228.022V232.652C1047.47 233.637 1047.28 234.612 1046.91 235.524L1043.87 243.008C1043.2 244.65 1043.78 246.536 1045.25 247.52V247.52C1046.22 248.167 1046.84 249.229 1046.91 250.393L1047.24 255.743C1047.39 258.094 1048.45 260.295 1050.2 261.871L1052.02 263.501C1053.46 264.803 1055.34 265.524 1057.29 265.524V265.524C1060.12 265.524 1062.73 267.045 1064.13 269.508L1068.03 276.358C1068.8 277.713 1069.2 279.246 1069.2 280.805V287.517C1069.2 288.235 1069.39 288.94 1069.75 289.563V289.563C1071.84 293.223 1067.74 297.292 1064.09 295.176L1058.32 291.825C1057.02 291.07 1056.06 289.848 1055.63 288.407L1055.07 286.544C1054.57 284.886 1053.22 283.626 1051.53 283.251V283.251C1049.51 282.803 1048.01 281.113 1047.81 279.06L1047.08 271.822C1046.89 269.935 1046.11 268.156 1044.85 266.738L1038.36 259.429C1036.8 257.676 1035.99 255.384 1036.09 253.041L1037.17 229.267C1037.25 227.662 1036.89 226.067 1036.14 224.647L1032.22 217.247C1031.53 215.949 1031.17 214.504 1031.17 213.036V207.438C1031.17 206.977 1031.06 206.522 1030.84 206.116L1030.42 205.336C1029.57 203.748 1027.3 203.719 1026.4 205.285V205.285C1025.99 206.001 1025.23 206.443 1024.41 206.443H1023.94C1022.94 206.443 1022 206.927 1021.42 207.742L1020.91 208.448C1019.74 210.096 1017.65 210.825 1015.7 210.269L1015.31 210.155C1012.2 209.267 1010.57 205.849 1011.84 202.875L1012.57 201.187C1013.18 199.752 1013.3 198.153 1012.9 196.644L1011.96 193.1C1011.58 191.666 1010.28 190.668 1008.8 190.668V190.668C1006.99 190.668 1005.53 189.204 1005.53 187.398V186.537C1005.53 185.059 1004.74 183.694 1003.46 182.957L1002.53 182.418C1001.29 181.707 1000.35 180.58 999.872 179.238L997.219 171.809L996.292 169.955C995.077 167.526 991.841 167.001 989.921 168.921V168.921C989.366 169.476 988.659 169.854 987.89 170.009L983.271 170.933L976.921 172.202C976.045 172.377 975.147 172.034 974.612 171.32V171.32C973.94 170.424 972.723 170.136 971.721 170.637L969.26 171.868C967.667 172.664 966.66 174.293 966.66 176.074V176.074C966.66 176.854 966.466 177.622 966.096 178.308L963.879 182.415C962.628 184.734 960.422 186.388 957.845 186.941L954.998 187.551C953.302 187.914 951.747 188.76 950.52 189.987L940.412 200.095C939.826 200.681 939.497 201.476 939.497 202.305V202.305C939.497 203.636 938.654 204.821 937.397 205.257L933.709 206.538C932.599 206.923 931.58 207.531 930.714 208.325L928.038 210.778C925.494 213.11 924.508 216.692 925.5 219.998L926.957 224.857C927.598 226.992 927.423 229.289 926.467 231.302L924.747 234.926C924.175 236.132 923.878 237.45 923.878 238.785V240.913C923.878 242.292 923.253 243.596 922.18 244.462V244.462C921.106 245.327 920.482 246.632 920.482 248.011V249.373C920.482 251.141 919.178 252.638 917.426 252.879L916.094 253.063C915.106 253.199 914.37 254.043 914.37 255.039V255.039C914.37 256.368 913.097 257.325 911.821 256.956L908.304 255.94C906.981 255.557 905.89 254.619 905.313 253.368L898.372 238.33C898.172 237.898 897.939 237.483 897.674 237.087L894.132 231.807C893.137 230.324 892.606 228.578 892.606 226.793V224.35C892.606 222.909 892.26 221.489 891.597 220.21L885.885 209.183C885.412 208.268 885.098 207.28 884.959 206.259L881.134 178.209C881.108 178.018 881.06 177.83 880.991 177.65L880.199 175.591C879.505 173.787 876.873 174.053 876.555 175.96V175.96C876.426 176.733 875.836 177.347 875.069 177.506L873.935 177.742C872.211 178.099 871.001 179.656 871.08 181.416L871.961 200.994C872.069 203.406 869.156 204.69 867.449 202.983V202.983C867.05 202.584 866.789 202.067 866.704 201.509L863.487 180.278C863.455 180.065 863.439 179.851 863.439 179.636V172.189C863.439 169.82 860.298 168.986 859.123 171.043V171.043C858.841 171.537 858.387 171.909 857.848 172.089L853.834 173.427C851.813 174.1 849.585 173.574 848.078 172.068L844.758 168.747C842.913 166.902 843.925 163.744 846.499 163.315L846.832 163.259C847.85 163.089 848.68 162.349 848.963 161.356V161.356C849.426 159.736 848.294 158.097 846.615 157.957L843.137 157.666C841.384 157.52 839.805 156.55 838.881 155.053L833.772 146.77C833.217 145.872 832.237 145.325 831.182 145.325H830.686C829.285 145.325 828.148 144.193 828.141 142.793V142.793C828.133 141.256 826.775 140.077 825.252 140.284L799.816 143.753C798.778 143.894 797.722 143.854 796.698 143.632L777.16 139.408C774.67 138.869 772.673 137.013 771.954 134.569V134.569C770.771 130.547 766.328 128.476 762.487 130.156L761.911 130.408C759.968 131.258 757.756 131.248 755.821 130.379L749.578 127.576C748.724 127.193 747.993 126.581 747.466 125.807V125.807C746.522 124.423 744.954 123.594 743.278 123.594H742.951C740.669 123.594 738.607 122.229 737.716 120.128L733.404 109.966C732.369 107.524 729.973 105.938 727.321 105.938H726.746C725.528 105.938 724.351 106.377 723.43 107.174V107.174C721.543 108.808 721.127 111.573 722.45 113.69L732.365 129.554C733.259 130.985 733.733 132.638 733.733 134.324V135.197C733.733 136.932 734.235 138.63 735.177 140.087L738.543 145.289C740.202 147.852 743.046 149.4 746.099 149.4H750.71L754.948 149.753C757.314 149.95 759.564 148.697 760.641 146.582V146.582C762.823 142.3 768.952 142.334 771.086 146.64L772.356 149.203C773.274 151.057 774.938 152.432 776.932 152.986L780.608 154.007C783.867 154.913 786.225 157.74 786.532 161.108V161.108C786.644 162.341 786.473 163.583 786.032 164.739L781.929 175.51C781.522 176.579 780.566 177.343 779.434 177.504V177.504C777.792 177.739 776.615 179.207 776.742 180.86L776.967 183.79C777.094 185.447 775.898 186.911 774.249 187.118V187.118C772.797 187.299 771.668 188.467 771.535 189.925L771.378 191.654C771.215 193.441 769.627 194.753 767.842 194.574L767.122 194.502C765.607 194.351 764.292 195.541 764.292 197.063V197.063C764.292 198.197 763.55 199.198 762.464 199.526L750.202 203.238C747.747 203.981 745.726 205.736 744.646 208.063L744.065 209.314C743.099 211.396 741.375 213.029 739.244 213.881L727.927 218.408C726.395 219.021 725.06 220.044 724.07 221.365L723.955 221.517C722.401 223.59 720.029 224.892 717.445 225.091L713.979 225.358C713.118 225.424 712.272 225.613 711.465 225.921L705.577 228.164C701.451 229.735 696.795 228.083 694.584 224.263L691.695 219.274C691.202 218.422 690.852 217.495 690.659 216.53L687.182 199.143C686.979 198.132 686.605 197.163 686.074 196.278L678.727 184.033L669.433 172.415C668.405 171.131 667.749 169.589 667.536 167.957L666.22 157.868C665.964 155.899 665.063 154.071 663.66 152.668L659.438 148.446C658.285 147.293 657.466 145.847 657.071 144.265L655.337 137.33C655.087 136.329 654.666 135.379 654.094 134.521L645.605 121.787C644.619 120.309 644.094 118.572 644.094 116.795V107.975V107.932C644.094 107.917 644.072 107.913 644.066 107.928V107.928" stroke="black" stroke-width="2" stroke-linejoin="round"/>
<path d="M1026.08 275.059C1025.42 274.599 1024.63 274.352 1023.82 274.352V274.352C1020.95 274.352 1019.03 277.321 1020.22 279.941L1020.87 281.375C1021.2 282.114 1021.71 282.76 1022.35 283.257L1031.97 290.703C1037.66 295.106 1042.01 301.017 1044.51 307.764V307.764C1046.46 313.041 1049.55 317.825 1053.55 321.778L1073.11 341.085C1074.4 342.365 1076.15 343.082 1077.97 343.082V343.082C1082.29 343.082 1085.55 339.179 1084.79 334.932L1083.55 328.011C1083.19 326.035 1082.38 324.169 1081.17 322.566L1070.24 308.067C1065.97 302.393 1060.65 297.584 1054.58 293.898L1043.63 287.254L1026.08 275.059Z" stroke="black" stroke-width="2" stroke-linejoin="round"/>
<path d="M1088.73 346.485C1087.97 346.822 1087.39 347.463 1087.13 348.25V348.25C1086.64 349.742 1087.42 351.356 1088.89 351.911L1093.66 353.715C1094.99 354.219 1096.43 354.37 1097.84 354.153L1102.06 353.503C1103.67 353.255 1105.32 353.406 1106.87 353.942L1119.37 358.292C1119.88 358.468 1120.41 358.558 1120.95 358.558H1123.13C1127 358.558 1128.67 353.646 1125.6 351.282V351.282C1125.29 351.041 1124.94 350.847 1124.57 350.706L1113.84 346.619C1112.18 345.988 1110.39 345.809 1108.64 346.101L1105.38 346.643C1103.92 346.887 1102.42 346.802 1100.99 346.394L1096.55 345.124C1094.68 344.59 1092.68 344.73 1090.9 345.52L1088.73 346.485Z" stroke="black" stroke-width="2" stroke-linejoin="round"/>
</svg>
