<svg width="46" height="46" viewBox="0 0 46 46" fill="none" xmlns="http://www.w3.org/2000/svg">
<g clip-path="url(#clip0_631_821)">
<circle cx="23" cy="23" r="21" stroke="black" stroke-width="3"/>
<path d="M13.0815 4C13.0815 6.20815 12.1383 10.3846 16.6692 9.79639C19.8583 9.38236 19.4598 12.6946 22.6489 11.8665C25.2709 11.1045 25.2013 7.59459 28.2299 9.79639C31.419 12.1149 35.6712 9.79639 37 8.55431" stroke="black" stroke-width="3"/>
<path d="M40 36C39.5 34.3333 37.3 30.9 32.5 30.5C26.5 30 23 31.5 23 35C23 38.5 30 37 26 44" stroke="black" stroke-width="3"/>
<path d="M1.5 23.9999C3.16667 22.3333 5.8 18.0999 9 20.4999C13 23.4999 13.38 21.8249 15.5 20.4999C19.5 17.9999 24 29.5 16.5 29C11.4123 28.6608 9.23866 31.2386 12 34C13.5 35.5 15.5 37 13.5 40.5" stroke="black" stroke-width="3"/>
</g>
<defs>
<clipPath id="clip0_631_821">
<rect width="46" height="46" fill="white"/>
</clipPath>
</defs>
</svg>
