<svg width="47" height="47" viewBox="0 0 47 47" fill="none" xmlns="http://www.w3.org/2000/svg">
<path d="M13 38.16L13 36.66C12.6022 36.66 12.2206 36.8181 11.9393 37.0994L13 38.16ZM21 38.16L21 39.66H21V38.16ZM8 43.16H6.5C6.5 43.7667 6.86546 44.3137 7.42597 44.5459C7.98649 44.778 8.63166 44.6497 9.06066 44.2207L8 43.16ZM8 38.16H9.5C9.5 37.3316 8.82843 36.66 8 36.66V38.16ZM15 19.16H16.5C16.5 18.3316 15.8284 17.66 15 17.66V19.16ZM26 28.66H27.5C27.5 27.8316 26.8284 27.16 26 27.16V28.66ZM13 39.66L21 39.66L21 36.66L13 36.66L13 39.66ZM11.9393 37.0994L6.93934 42.0994L9.06066 44.2207L14.0607 39.2207L11.9393 37.0994ZM9.5 43.16V38.16H6.5V43.16H9.5ZM1.5 33.16C1.5 36.7499 4.41015 39.66 8 39.66V36.66C6.067 36.66 4.5 35.093 4.5 33.16H1.5ZM1.5 24.16V33.16H4.5V24.16H1.5ZM8 17.66C4.41015 17.66 1.5 20.5702 1.5 24.16H4.5C4.5 22.227 6.067 20.66 8 20.66V17.66ZM15 17.66H8V20.66H15V17.66ZM16.5 23.66V19.16H13.5V23.66H16.5ZM20 27.16C18.067 27.16 16.5 25.593 16.5 23.66H13.5C13.5 27.2499 16.4101 30.16 20 30.16V27.16ZM26 27.16H20V30.16H26V27.16ZM27.5 33.16V28.66H24.5V33.16H27.5ZM21 39.66C24.5899 39.66 27.5 36.7499 27.5 33.16H24.5C24.5 35.093 22.933 36.66 21 36.66V39.66Z" fill="black"/>
<path d="M32.4 28.36L33.4607 27.2993C33.1794 27.018 32.7978 26.86 32.4 26.86V28.36ZM38.2 34.16L37.1393 35.2207C37.5683 35.6497 38.2135 35.778 38.774 35.5458C39.3345 35.3136 39.7 34.7667 39.7 34.16H38.2ZM38.2 28.36V26.86C37.3716 26.86 36.7 27.5316 36.7 28.36H38.2ZM16.5 9C16.5 7.067 18.067 5.5 20 5.5V2.5C16.4101 2.5 13.5 5.41015 13.5 9H16.5ZM16.5 23.36V9H13.5V23.36H16.5ZM20 26.86C18.067 26.86 16.5 25.293 16.5 23.36H13.5C13.5 26.9499 16.4101 29.86 20 29.86V26.86ZM32.4 26.86H20V29.86H32.4V26.86ZM31.3393 29.4207L37.1393 35.2207L39.2607 33.0993L33.4607 27.2993L31.3393 29.4207ZM39.7 34.16V28.36H36.7V34.16H39.7ZM39 26.86H38.2V29.86H39V26.86ZM42.5 23.36C42.5 25.293 40.933 26.86 39 26.86V29.86C42.5899 29.86 45.5 26.9498 45.5 23.36H42.5ZM42.5 9V23.36H45.5V9H42.5ZM39 5.5C40.933 5.5 42.5 7.067 42.5 9H45.5C45.5 5.41015 42.5899 2.5 39 2.5V5.5ZM20 5.5H39V2.5H20V5.5Z" fill="black"/>
</svg>
