<svg width="47" height="47" viewBox="0 0 47 47" fill="none" xmlns="http://www.w3.org/2000/svg">
<circle cx="24" cy="10" r="6.5" stroke="black" stroke-width="3"/>
<path d="M13.8857 16.5H34.1143C36.2482 16.5 38.0886 17.9987 38.521 20.0883L42.0382 37.0883C42.616 39.881 40.4834 42.5 37.6315 42.5H10.3685C7.51658 42.5 5.38397 39.881 5.96178 37.0883L9.47902 20.0883C9.91136 17.9987 11.7518 16.5 13.8857 16.5Z" stroke="black" stroke-width="3"/>
<path d="M17.6263 28.5469L18.6004 27.3018L20.8929 24.8115H23.4124L20.1604 28.3638L23.6102 33H21.032L18.6736 29.6821L17.7142 30.4512V33H15.4803V21.6035H17.7142V26.6865L17.597 28.5469H17.6263ZM32.5085 24.8115V25.9468L31.2268 26.2764C31.4611 26.6426 31.5783 27.0527 31.5783 27.5068C31.5783 28.3857 31.2707 29.0718 30.6555 29.5649C30.0451 30.0532 29.1955 30.2974 28.1066 30.2974L27.7038 30.2754L27.3742 30.2388C27.1447 30.4146 27.03 30.6099 27.03 30.8247C27.03 31.147 27.4401 31.3081 28.2604 31.3081H29.6521C30.5505 31.3081 31.2341 31.501 31.7028 31.8867C32.1765 32.2725 32.4133 32.8389 32.4133 33.5859C32.4133 34.543 32.0129 35.2852 31.2121 35.8125C30.4162 36.3398 29.2712 36.6035 27.7771 36.6035C26.6345 36.6035 25.7604 36.4033 25.155 36.0029C24.5544 35.6074 24.2541 35.0508 24.2541 34.333C24.2541 33.8398 24.4079 33.4272 24.7155 33.0952C25.0231 32.7632 25.4748 32.5264 26.0705 32.3848C25.841 32.2871 25.6408 32.1284 25.4699 31.9087C25.299 31.6841 25.2136 31.4473 25.2136 31.1982C25.2136 30.8857 25.3039 30.627 25.4846 30.4219C25.6652 30.2119 25.9265 30.0068 26.2683 29.8066C25.8386 29.6211 25.4968 29.3232 25.2429 28.9131C24.9938 28.5029 24.8693 28.0195 24.8693 27.4629C24.8693 26.5693 25.1599 25.8784 25.7409 25.3901C26.322 24.9019 27.1521 24.6577 28.2312 24.6577C28.4606 24.6577 28.7316 24.6797 29.0441 24.7236C29.3615 24.7627 29.5642 24.792 29.6521 24.8115H32.5085ZM26.1877 34.1572C26.1877 34.4648 26.3342 34.7065 26.6271 34.8823C26.925 35.0581 27.34 35.146 27.8723 35.146C28.673 35.146 29.3005 35.0361 29.7546 34.8164C30.2087 34.5967 30.4357 34.2964 30.4357 33.9155C30.4357 33.6079 30.3015 33.3955 30.0329 33.2783C29.7644 33.1611 29.3493 33.1025 28.7878 33.1025H27.6306C27.2204 33.1025 26.8762 33.1978 26.5979 33.3882C26.3244 33.5835 26.1877 33.8398 26.1877 34.1572ZM27.0007 27.4922C27.0007 27.9365 27.1008 28.2881 27.301 28.5469C27.5061 28.8057 27.8161 28.9351 28.2312 28.9351C28.6511 28.9351 28.9587 28.8057 29.154 28.5469C29.3493 28.2881 29.447 27.9365 29.447 27.4922C29.447 26.5059 29.0417 26.0127 28.2312 26.0127C27.4108 26.0127 27.0007 26.5059 27.0007 27.4922Z" fill="black"/>
</svg>
